 <svg  version="1.0" xmlns="http://www.w3.org/2000/svg"  width="300.000000pt" height="302.000000pt" viewBox="0 0 300.000000 302.000000"  preserveAspectRatio="xMidYMid meet">  <g transform="translate(0.000000,302.000000) scale(0.100000,-0.100000)" fill="#ffffff" stroke="none"> <path d="M2140 2915 c0 -19 -4 -35 -9 -35 -5 0 -54 -40 -109 -90 -56 -49 -103 -90 -106 -90 -2 0 -6 6 -9 13 -2 6 -2 -1 1 -18 4 -26 3 -28 -12 -16 -8 7 -13 17 -10 22 3 5 -2 6 -10 3 -18 -7 -21 -24 -5 -24 6 0 23 -8 37 -18 31 -22 72 -34 72 -22 0 5 -9 11 -19 15 -49 15 -42 29 60 121 109 97 119 104 114 77 -8 -40 -13 -173 -6 -173 4 0 12 21 19 46 9 34 16 44 25 36 6 -5 22 -11 33 -14 20 -5 22 -1 28 85 4 49 3 93 -1 97 -4 4 -27 10 -50 14 l-43 6 0 -35z m79 6 c12 -8 10 -16 -8 -52 -13 -24 -17 -38 -9 -31 12 9 14 8 12 -11 -1 -12 -3 -32 -3 -44 -1 -19 -14 -23 -41 -13 -3 1 -8 2 -12 1 -5 0 -8 19 -8 43 0 37 4 46 23 52 12 5 25 7 30 6 4 -1 7 7 7 18 0 12 -7 20 -17 20 -10 0 -25 5 -33 10 -12 7 -8 10 15 10 17 0 36 -4 44 -9z m-33 -36 c-25 -19 -36 -19 -36 0 0 10 10 15 28 15 26 -1 26 -1 8 -15z"/> <path d="M2080 2888 c-70 -62 -161 -151 -158 -154 2 -1 48 40 103 91 55 52 98 94 95 94 -3 0 -21 -14 -40 -31z"/> <path d="M2210 2694 l0 -37 -45 5 c-39 5 -45 3 -45 -13 0 -12 7 -19 19 -19 10 0 32 -3 49 -6 30 -6 30 -6 33 46 2 29 1 54 -3 57 -5 2 -8 -12 -8 -33z"/> <path d="M1901 2588 c-11 -24 -56 -119 -101 -213 -161 -334 -191 -398 -186 -403 3 -3 17 19 30 49 13 30 63 135 111 234 48 99 101 209 118 245 17 36 35 68 41 72 6 4 8 8 4 8 -4 0 -3 11 2 25 16 42 1 28 -19 -17z"/> <path d="M1951 2599 c-5 -13 -55 -118 -111 -234 -56 -115 -133 -274 -171 -352 -47 -100 -73 -143 -85 -143 -13 0 -14 3 -4 15 7 8 8 15 2 15 -5 0 -16 -10 -24 -21 -13 -21 -16 -16 -60 82 -35 80 -43 108 -36 123 6 10 6 16 1 13 -4 -3 -14 1 -20 8 -10 11 -7 14 15 17 26 3 29 -2 71 -100 24 -57 45 -101 48 -98 2 2 -10 37 -27 76 -17 39 -29 74 -26 77 3 3 9 -3 13 -13 7 -20 33 -50 33 -39 0 17 -44 88 -47 77 -3 -6 -9 -10 -14 -6 -14 8 -11 24 5 24 11 0 3 25 -28 93 l-43 92 -52 5 c-29 3 -54 4 -56 2 -2 -3 3 -18 12 -35 11 -22 13 -35 5 -47 -13 -21 -182 -448 -182 -461 0 -13 -18 -11 -23 4 -2 6 0 22 6 33 6 15 5 29 -3 44 -6 12 -9 24 -6 27 3 3 -2 12 -12 19 -10 8 -12 13 -5 14 9 0 4 19 -14 55 l-27 55 -54 0 c-45 0 -53 -3 -48 -16 3 -9 6 -18 6 -20 0 -2 5 -4 10 -4 6 0 10 6 10 13 0 8 7 14 15 14 8 0 15 -4 15 -9 0 -5 5 -6 10 -3 6 3 10 0 11 -7 0 -7 4 -4 9 7 8 19 9 19 9 -3 1 -13 8 -31 18 -40 15 -15 14 -17 -8 -22 -13 -4 -27 -2 -31 4 -6 7 -11 6 -18 -4 -7 -11 -10 -7 -10 18 0 30 -2 32 -21 22 -11 -7 -31 -35 -44 -63 -13 -29 -35 -65 -49 -82 -14 -16 -26 -34 -26 -38 0 -5 -3 -6 -7 -4 -5 3 -14 -1 -21 -9 -7 -8 -8 -14 -2 -14 6 0 6 -7 -2 -19 -7 -11 -15 -18 -20 -15 -4 3 -19 -18 -33 -46 -14 -27 -24 -50 -22 -50 5 0 163 213 176 237 5 10 15 33 21 51 7 17 17 32 22 32 5 0 15 -15 23 -32 8 -18 14 -27 15 -20 0 6 9 12 20 12 18 0 19 -3 10 -22 l-11 -23 17 23 c23 31 30 28 54 -19 20 -38 20 -43 6 -74 -20 -42 -20 -42 8 -47 23 -5 28 6 115 226 50 127 95 237 100 245 11 17 25 -8 70 -120 16 -41 47 -112 68 -159 39 -83 40 -85 74 -84 l34 1 183 378 c100 208 180 380 178 383 -3 3 -10 -6 -15 -19z m-525 -330 c2 -32 5 -35 13 -15 6 15 12 6 31 -43 12 -34 21 -63 19 -65 -2 -2 -14 -7 -26 -10 -22 -7 -23 -4 -24 41 -2 46 -2 47 -9 13 l-6 -35 -8 28 c-5 15 -12 27 -17 27 -5 0 -9 7 -9 15 0 8 -6 15 -12 15 -9 0 -8 3 2 9 8 6 19 7 25 4 5 -4 6 -2 2 3 -5 5 -13 9 -18 9 -5 0 -8 5 -6 10 1 6 10 9 20 8 12 -2 16 1 11 10 -4 7 -3 9 2 4 5 -5 10 -17 10 -28z"/> <path d="M2111 2594 c0 -11 3 -14 6 -6 3 7 2 16 -1 19 -3 4 -6 -2 -5 -13z"/> <path d="M2137 2603 c-4 -3 -7 -13 -7 -22 1 -13 3 -13 11 2 11 19 8 33 -4 20z"/> <path d="M2202 2580 c0 -14 2 -19 5 -12 2 6 2 18 0 25 -3 6 -5 1 -5 -13z"/> <path d="M2017 2543 c-24 -47 -322 -682 -367 -783 -24 -52 -49 -104 -56 -114 -13 -19 -13 -19 -20 0 -4 10 -47 114 -95 229 l-87 210 -34 3 c-28 2 -36 -1 -43 -21 -6 -13 -46 -113 -89 -221 l-80 -198 -22 44 c-12 23 -20 46 -18 50 8 12 -49 117 -60 111 -5 -4 -7 0 -4 8 4 11 -3 16 -28 17 -19 2 -34 0 -34 -3 0 -12 124 -265 128 -261 2 3 -23 62 -57 131 -47 98 -57 126 -43 123 10 -2 40 -47 76 -117 51 -100 57 -117 47 -139 -7 -13 -10 -27 -7 -29 3 -3 27 -2 54 2 l49 6 27 65 c14 36 24 70 21 75 -4 5 -2 9 3 9 5 0 17 19 27 43 10 23 21 46 23 51 3 5 0 6 -7 2 -16 -10 -14 -4 21 80 l31 75 80 -195 c44 -108 82 -194 84 -192 4 4 -36 111 -68 183 -10 24 -19 45 -19 48 0 4 -10 27 -21 53 -12 25 -22 51 -24 57 -1 5 -9 26 -18 45 -19 45 -25 79 -12 81 6 1 51 -95 100 -212 50 -118 94 -219 98 -226 4 -7 1 -26 -8 -44 -9 -17 -15 -32 -13 -34 2 -2 26 -1 53 3 55 8 48 -2 145 202 30 63 56 118 58 121 2 4 -5 6 -15 5 -10 0 -17 4 -16 9 1 6 70 149 153 319 83 170 149 313 147 319 -1 5 -40 -69 -87 -165 -46 -95 -113 -234 -150 -308 -36 -74 -79 -164 -95 -200 -15 -36 -30 -59 -33 -52 -2 6 -8 10 -12 7 -21 -13 26 96 200 460 98 204 139 295 135 295 -3 0 -11 -12 -18 -27z m-664 -573 c-40 -94 -53 -132 -48 -141 4 -5 2 -9 -4 -9 -5 0 -17 -20 -26 -44 -17 -43 -43 -68 -47 -43 0 7 -2 17 -2 22 -1 6 -5 15 -9 21 -4 7 18 72 49 145 31 74 59 141 62 149 4 10 11 2 23 -25 16 -36 16 -42 2 -75z m418 -134 c-6 -14 -16 -26 -22 -26 -8 0 -8 4 1 15 7 8 9 15 5 15 -4 0 -2 7 5 15 18 21 22 13 11 -19z m-72 -66 c1 9 10 16 21 16 21 0 27 -11 11 -21 -5 -3 -12 -19 -16 -35 -4 -17 -11 -28 -16 -24 -8 4 -14 -25 -10 -48 0 -5 -3 -8 -8 -8 -5 0 -11 -10 -13 -22 -2 -14 -7 -1 -12 30 -7 43 -5 62 10 94 15 34 19 37 25 22 6 -14 8 -15 8 -4z m-481 -38 c2 -7 -3 -12 -12 -12 -9 0 -16 7 -16 16 0 17 22 14 28 -4z m31 -51 c0 -23 -1 -24 -9 -6 -7 16 -9 12 -10 -20 l-2 -40 -9 44 c-5 24 -6 47 -3 52 10 17 34 -4 33 -30z m-57 7 c-7 -7 -12 -21 -12 -32 0 -16 2 -18 9 -7 5 8 11 9 15 3 3 -6 2 -13 -4 -17 -5 -3 -10 -11 -10 -16 0 -6 5 -7 10 -4 6 3 10 1 10 -6 0 -7 -9 -9 -22 -5 -13 3 -30 6 -38 6 -12 1 -11 3 3 11 9 6 17 22 17 37 0 27 18 57 29 47 2 -3 -1 -11 -7 -17z m458 -51 c0 -12 -16 -23 -63 -45 -12 -6 13 41 27 50 18 12 36 9 36 -5z m0 -36 c0 -12 -8 -17 -45 -25 l-30 -7 30 21 c33 22 45 25 45 11z"/> <path d="M1691 1734 c0 -11 3 -14 6 -6 3 7 2 16 -1 19 -3 4 -6 -2 -5 -13z"/> <path d="M2085 2562 c-3 -3 2 -14 12 -24 21 -24 113 -26 113 -3 0 8 -4 15 -10 15 -5 0 -12 1 -15 2 -20 6 -96 14 -100 10z"/> <path d="M2051 2423 c-10 -26 -10 -27 4 -9 8 11 15 23 15 28 0 15 -7 8 -19 -19z"/> <path d="M2025 2369 c-10 -30 0 -33 13 -4 6 14 7 25 2 25 -5 0 -12 -9 -15 -21z"/> <path d="M1969 2249 c-22 -45 -39 -83 -37 -85 2 -2 23 35 46 81 23 47 40 85 37 85 -3 0 -23 -36 -46 -81z"/> <path d="M1246 2077 c-42 -106 -76 -197 -76 -203 0 -5 6 5 14 21 7 17 21 48 31 70 9 22 26 63 36 90 10 28 31 86 48 129 17 44 29 82 27 84 -2 1 -38 -84 -80 -191z"/> <path d="M1892 2090 c-17 -33 -28 -60 -24 -60 9 0 65 110 59 116 -2 2 -17 -23 -35 -56z"/> <path d="M1852 2008 c-10 -13 -28 -67 -20 -58 9 8 39 70 34 70 -2 0 -8 -6 -14 -12z"/> <path d="M920 1902 c-56 -109 -55 -106 -43 -99 12 8 97 177 91 182 -2 2 -24 -35 -48 -83z"/> <path d="M1817 1933 c-4 -3 -7 -13 -7 -22 1 -13 3 -13 11 2 11 19 8 33 -4 20z"/> <path d="M2193 1913 c20 -2 54 -2 75 0 20 2 3 4 -38 4 -41 0 -58 -2 -37 -4z"/> <path d="M2328 1330 c2 -531 1 -591 -14 -597 -8 -3 -21 0 -27 7 -9 10 -9 14 1 17 16 6 18 823 2 823 -6 0 -10 37 -10 91 0 57 4 88 10 84 6 -3 10 -1 10 4 0 7 -24 10 -62 9 -57 -1 -58 -2 -15 -5 l47 -4 0 -507 0 -507 -104 -32 c-57 -18 -109 -33 -115 -33 -6 0 -11 -4 -11 -10 0 -15 6 -13 120 25 58 19 109 34 115 31 13 -4 -212 -76 -240 -76 -13 0 -37 3 -54 6 -26 5 -31 11 -31 34 0 16 -6 31 -12 33 -10 4 -10 6 0 6 9 1 12 49 12 204 0 174 -2 204 -15 204 -8 0 -15 -4 -15 -9 0 -4 5 -8 11 -8 8 0 8 -5 -1 -15 -10 -12 -10 -18 0 -30 7 -8 9 -15 4 -15 -5 0 -9 -79 -10 -175 0 -118 3 -175 10 -175 6 0 4 -5 -4 -10 -13 -9 -13 -11 0 -20 12 -8 12 -10 -5 -10 -56 0 -95 13 -95 31 0 11 -7 19 -16 19 -14 0 -15 -2 -3 -17 13 -15 11 -16 -26 -9 -22 4 -46 8 -52 8 -7 1 -13 4 -13 7 0 3 -15 7 -32 7 -49 2 -78 7 -78 15 0 3 -12 6 -27 6 -41 0 -83 7 -83 13 0 3 -15 6 -32 6 -35 1 -83 9 -133 21 -16 4 -33 6 -37 5 -5 -1 -8 78 -8 176 0 97 -4 184 -10 192 -6 9 -9 -32 -10 -115 -1 -72 -2 -152 -3 -180 -1 -27 2 -54 8 -58 5 -5 -8 -6 -30 -2 -22 3 -60 9 -83 12 -24 3 -39 9 -33 13 6 3 -17 7 -51 8 -35 1 -79 7 -98 12 -19 6 -55 13 -80 17 -25 3 -46 9 -48 14 -2 5 -8 9 -13 9 -6 0 -7 -4 -4 -10 3 -5 1 -10 -4 -10 -6 0 -11 -11 -11 -25 0 -15 6 -25 14 -25 9 0 12 7 9 20 -5 17 0 20 30 20 31 0 36 -3 39 -27 2 -22 9 -28 28 -30 14 -1 18 1 9 3 -10 3 -19 14 -22 26 -5 17 -2 19 16 14 12 -3 25 -6 28 -6 3 0 4 -11 2 -24 -4 -20 0 -24 33 -29 21 -4 40 -4 43 -2 2 3 -3 5 -12 5 -9 0 -17 5 -17 11 0 6 -7 9 -15 5 -10 -3 -15 1 -15 13 0 17 4 18 38 10 20 -5 40 -9 43 -9 3 0 4 -11 1 -25 -3 -20 0 -25 17 -25 11 0 21 5 21 11 0 5 -5 7 -10 4 -5 -3 -10 3 -10 15 0 16 5 19 23 15 12 -3 32 -7 43 -7 18 -2 21 -6 14 -24 -9 -22 -4 -34 12 -34 4 0 8 12 8 26 0 22 3 25 23 20 12 -3 30 -6 40 -6 14 0 18 -6 15 -27 -2 -15 2 -28 10 -30 7 -3 12 5 12 22 0 23 3 26 23 21 12 -3 30 -6 41 -6 14 0 17 -6 14 -25 -4 -20 -1 -26 19 -31 13 -4 27 -4 30 0 4 3 -1 6 -10 6 -10 0 -17 8 -17 21 0 18 4 20 48 14 26 -4 61 -10 77 -15 17 -4 63 -14 103 -21 69 -12 72 -13 72 -41 0 -18 5 -28 15 -28 9 0 15 9 15 25 0 24 2 24 48 19 26 -3 58 -10 72 -15 14 -5 43 -11 65 -13 22 -1 47 -5 55 -9 52 -19 76 -16 211 28 77 25 144 45 149 45 6 0 10 -9 10 -20 0 -13 5 -18 15 -14 18 7 20 54 3 54 -10 0 -9 3 1 9 11 7 13 94 10 517 -2 280 -7 511 -10 514 -3 3 -3 35 1 73 4 56 3 67 -10 67 -13 0 -15 -67 -12 -590z"/> <path d="M1952 1833 l2 -78 3 73 4 72 39 0 c22 0 39 -3 39 -7 -1 -5 -1 -180 0 -391 l1 -382 43 6 c23 4 46 11 52 15 5 5 -11 6 -38 3 l-47 -7 0 91 0 91 53 10 c90 17 94 19 62 19 -16 1 -49 -3 -72 -7 l-43 -8 0 98 0 98 58 6 c100 12 136 25 52 19 -41 -3 -83 -8 -92 -10 -17 -5 -18 8 -18 175 l0 180 48 4 c26 2 3 4 -50 5 l-98 2 2 -77z"/> <path d="M946 1730 c-25 -38 -44 -70 -41 -70 2 0 22 26 43 58 47 70 54 82 49 82 -2 0 -25 -31 -51 -70z"/> <path d="M2088 1753 c12 -2 32 -2 45 0 12 2 2 4 -23 4 -25 0 -35 -2 -22 -4z"/> <path d="M1887 1743 c54 -3 62 -7 67 -26 4 -19 4 -18 3 3 -2 24 -5 25 -67 26 l-65 1 62 -4z"/> <path d="M1916 1715 c4 -8 8 -15 10 -15 2 0 4 7 4 15 0 8 -4 15 -10 15 -5 0 -7 -7 -4 -15z"/> <path d="M1833 1660 c0 -36 2 -50 4 -32 2 17 2 47 0 65 -2 17 -4 3 -4 -33z"/> <path d="M1953 1610 c0 -36 2 -50 4 -32 2 17 2 47 0 65 -2 17 -4 3 -4 -33z"/> <path d="M1921 1624 c0 -11 3 -14 6 -6 3 7 2 16 -1 19 -3 4 -6 -2 -5 -13z"/> <path d="M1831 1574 c0 -11 3 -14 6 -6 3 7 2 16 -1 19 -3 4 -6 -2 -5 -13z"/> <path d="M1921 1553 c-1 -23 3 -33 14 -33 8 0 15 5 15 10 0 6 -4 10 -9 10 -5 0 -12 10 -14 23 -3 16 -5 13 -6 -10z"/> <path d="M1831 1543 c-1 -9 -19 -13 -56 -13 l-54 0 -3 -107 -3 -108 -52 2 c-29 1 -53 -2 -53 -7 0 -6 16 -10 35 -10 l35 0 0 -49 c0 -28 5 -53 10 -56 6 -3 10 -17 10 -31 0 -13 5 -24 10 -24 6 0 10 14 10 30 0 20 -5 30 -15 30 -25 0 -20 88 6 109 19 15 21 27 21 113 l0 96 48 -2 c52 -1 65 5 57 26 -4 10 -6 10 -6 1z"/> <path d="M1832 1430 c-1 -63 1 -80 9 -67 7 11 7 40 1 85 l-9 67 -1 -85z"/> <path d="M1953 1430 c0 -47 2 -66 4 -42 2 23 2 61 0 85 -2 23 -4 4 -4 -43z"/> <path d="M1797 1418 c3 -84 13 -618 13 -650 0 -10 5 -18 10 -18 6 0 10 73 10 200 0 127 -4 200 -10 200 -15 0 -13 157 3 163 10 4 10 6 0 6 -10 1 -13 26 -13 91 0 50 -3 90 -7 90 -5 0 -7 -37 -6 -82z"/> <path d="M1914 1465 c-9 -52 4 -145 22 -145 16 0 19 17 4 22 -6 2 -11 37 -12 81 0 42 -2 77 -4 77 -2 0 -6 -16 -10 -35z"/> <path d="M1395 1375 c-71 -12 -147 -20 -167 -17 l-37 5 1 -137 c0 -75 4 -151 8 -168 5 -20 8 30 9 130 1 156 2 163 20 157 16 -5 171 16 331 45 l45 8 -40 0 c-22 0 -98 -10 -170 -23z"/> <path d="M1573 1305 c0 -44 -1 -90 -2 -102 -1 -24 -25 -31 -37 -11 -4 7 -3 8 4 4 8 -5 12 5 12 33 l0 41 -57 -1 c-59 0 -151 -15 -123 -19 19 -3 -36 -17 -72 -19 -27 -1 -28 1 -28 47 0 28 -4 42 -8 34 -9 -14 -9 -23 3 -89 4 -24 10 -43 14 -43 3 1 31 7 61 15 l55 15 -59 -6 c-41 -4 -56 -2 -52 5 4 6 16 11 28 11 11 0 46 6 77 14 31 8 72 16 93 19 l36 5 4 -44 3 -45 -35 5 c-19 3 -51 2 -70 -3 -30 -8 -31 -9 -10 -11 22 -2 20 -3 -10 -11 l-35 -10 2 -172 c1 -95 6 -173 10 -175 4 -1 10 53 13 120 l5 122 55 18 55 18 -49 -6 c-27 -3 -56 -8 -64 -12 -12 -4 -14 -1 -9 12 4 10 7 30 7 45 0 26 3 27 108 50 l107 23 -3 49 c-2 28 -9 49 -15 49 -7 0 -5 5 3 10 9 6 10 10 3 10 -7 0 -14 19 -16 43 -2 23 -4 6 -4 -38z m-100 -142 c-7 -2 -19 -2 -25 0 -7 3 -2 5 12 5 14 0 19 -2 13 -5z"/> <path d="M1923 1245 c0 -38 2 -53 4 -32 2 20 2 52 0 70 -2 17 -4 1 -4 -38z"/> <path d="M1720 1256 c0 -26 4 -45 9 -42 8 5 5 76 -4 85 -3 2 -5 -17 -5 -43z"/> <path d="M1001 1246 c-68 -12 -136 -20 -152 -18 -28 4 -29 3 -29 -42 l0 -46 -45 0 -45 0 2 -72 2 -73 6 70 6 70 2 -78 c1 -50 -2 -76 -8 -72 -5 3 -10 -3 -10 -13 0 -11 8 -22 18 -24 15 -4 17 4 14 90 -3 75 -1 93 10 90 17 -6 24 -174 7 -194 -7 -9 -7 -14 -1 -14 14 0 22 25 22 72 0 34 3 39 18 34 16 -6 16 -5 0 8 -12 9 -18 27 -18 55 0 54 19 53 22 -1 1 -24 5 -2 8 47 l6 90 2 -127 c1 -80 -2 -128 -8 -128 -5 0 -10 -9 -10 -19 0 -12 10 -21 27 -26 15 -3 31 -12 35 -18 5 -8 11 -7 21 1 8 7 23 10 33 6 11 -3 15 -2 9 3 -7 5 -11 54 -10 120 0 101 2 113 18 113 14 0 17 -9 17 -56 l0 -56 48 7 c26 4 54 11 62 16 14 9 -41 4 -82 -8 -15 -4 -18 3 -18 45 l0 50 43 7 c23 3 50 9 59 11 15 4 17 -9 17 -132 1 -140 4 -155 24 -153 9 0 9 2 0 6 -10 3 -13 46 -13 165 l0 160 34 -3 c19 -2 38 0 42 4 4 4 -14 7 -39 7 -40 0 -47 -3 -47 -20 0 -22 -52 -37 -92 -25 -18 5 -20 4 -8 -4 11 -8 -1 -11 -46 -11 -58 0 -62 1 -67 26 -5 31 -15 27 153 54 74 12 137 24 139 26 9 8 -59 1 -178 -20z m-125 -77 c7 -41 13 -46 31 -28 12 12 18 -130 7 -187 -10 -52 -29 -42 -28 13 1 47 1 47 -3 6 -3 -29 -9 -43 -19 -43 -11 0 -14 25 -14 146 0 94 4 143 10 139 5 -3 13 -24 16 -46z"/> <path d="M881 1078 c0 -27 3 -48 8 -48 15 0 25 22 13 29 -6 3 -12 20 -15 36 -3 22 -4 17 -6 -17z"/> <path d="M1833 1220 c0 -30 2 -43 4 -27 2 15 2 39 0 55 -2 15 -4 2 -4 -28z"/> <path d="M1170 1179 c0 -5 5 -7 10 -4 6 3 10 8 10 11 0 2 -4 4 -10 4 -5 0 -10 -5 -10 -11z"/> <path d="M1930 1170 c-13 -8 -12 -10 3 -10 9 0 17 5 17 10 0 12 -1 12 -20 0z"/> <path d="M1297 1148 c6 -10 42 -9 68 2 14 6 7 8 -26 7 -26 -1 -45 -5 -42 -9z"/> <path d="M1570 1119 c0 -7 -13 -10 -34 -7 -19 2 -32 0 -30 -4 3 -4 20 -8 38 -8 17 0 38 -6 45 -12 9 -9 12 -9 7 -1 -3 6 0 14 6 16 7 3 4 6 -7 6 -17 1 -17 3 -5 11 13 8 12 10 -2 10 -10 0 -18 -5 -18 -11z"/> <path d="M1690 1110 c0 -5 4 -10 9 -10 6 0 13 5 16 10 3 6 -1 10 -9 10 -9 0 -16 -4 -16 -10z"/> <path d="M2042 1090 c0 -14 2 -19 5 -12 2 6 2 18 0 25 -3 6 -5 1 -5 -13z"/> <path d="M1168 985 c-2 -53 0 -107 4 -121 3 -13 2 -24 -3 -24 -5 0 -9 -4 -9 -10 0 -5 7 -10 15 -10 13 0 15 20 15 124 0 148 -17 180 -22 41z"/> <path d="M1691 900 c0 -154 2 -178 14 -174 18 7 20 30 3 37 -10 4 -10 6 -1 6 9 1 12 41 12 150 1 122 -2 150 -14 155 -12 4 -15 -21 -14 -174z"/> <path d="M1581 907 l-1 -165 45 17 c57 22 63 29 31 37 -15 3 -30 4 -33 0 -4 -3 5 -6 18 -6 19 0 21 -2 9 -10 -8 -5 -26 -10 -39 -10 -18 0 -21 3 -12 13 16 20 10 279 -6 284 -9 3 -12 -35 -12 -160z"/> <path d="M2052 953 l2 -108 3 95 c4 95 15 129 33 100 8 -13 10 -12 10 3 0 12 -8 17 -25 17 l-25 0 2 -107z"/> <path d="M1065 1042 c-57 -8 -63 -12 -58 -32 3 -11 2 -36 -1 -55 -9 -48 -30 -34 -22 14 3 20 1 42 -3 50 -6 9 -10 -9 -13 -51 -1 -37 0 -64 4 -62 3 2 9 -2 11 -8 4 -10 8 -10 15 1 8 12 13 11 32 -2 18 -13 19 -16 6 -20 -14 -4 -14 -5 0 -3 25 2 28 23 4 29 -17 4 -20 13 -20 67 0 53 2 61 16 56 9 -3 20 -6 25 -6 5 0 9 -19 9 -42 0 -30 3 -39 11 -31 5 5 9 30 7 54 -3 38 -6 44 -23 41z"/> <path d="M646 1033 c-12 -13 -6 -63 8 -63 7 0 20 -7 27 -17 13 -15 11 -16 -13 -10 -23 6 -26 4 -23 -13 2 -11 7 -25 10 -30 3 -6 1 -10 -4 -10 -17 0 -13 -37 5 -44 30 -12 54 -6 54 12 0 10 6 24 13 31 10 10 9 12 -3 10 -21 -4 -60 10 -60 22 0 5 10 9 23 9 16 0 18 -3 9 -9 -11 -7 -11 -9 2 -14 14 -5 16 3 16 58 0 36 -4 65 -8 65 -4 0 -6 -16 -4 -35 3 -21 0 -35 -7 -35 -6 0 -11 15 -11 34 0 31 -19 53 -34 39z m54 -169 c0 -9 -5 -14 -12 -12 -18 6 -21 28 -4 28 9 0 16 -7 16 -16z"/> <path d="M1440 1029 c-11 -8 -7 -9 20 -6 19 3 30 3 23 1 -8 -4 -12 -45 -12 -133 l-1 -129 42 15 c23 8 46 17 51 20 13 8 -14 23 -38 22 -16 -1 -15 -2 5 -8 l25 -7 -23 -8 c-13 -4 -26 -6 -28 -3 -2 2 -5 59 -5 126 0 118 -1 121 -22 121 -12 0 -29 -5 -37 -11z"/> <path d="M1203 980 c0 -25 2 -35 4 -22 2 12 2 32 0 45 -2 12 -4 2 -4 -23z"/> <path d="M730 927 c0 -10 8 -17 18 -17 9 0 13 4 7 8 -5 4 -13 11 -17 16 -5 5 -8 2 -8 -7z"/> <path d="M1070 900 c0 -16 5 -30 10 -30 6 0 10 14 10 30 0 17 -4 30 -10 30 -5 0 -10 -13 -10 -30z"/> <path d="M560 916 c0 -2 9 -6 20 -9 11 -3 18 -1 14 4 -5 9 -34 13 -34 5z"/> <path d="M810 913 c-60 -22 -80 -37 -80 -59 0 -15 6 -24 16 -24 11 0 14 6 9 21 -6 19 -4 21 18 17 14 -3 32 -1 39 3 8 6 1 9 -22 10 l-35 1 29 8 c16 5 32 7 36 5 4 -2 7 2 7 10 0 8 -1 15 -1 14 -1 0 -8 -3 -16 -6z"/> <path d="M518 903 c7 -3 16 -2 19 1 4 3 -2 6 -13 5 -11 0 -14 -3 -6 -6z"/> <path d="M848 903 c7 -3 16 -2 19 1 4 3 -2 6 -13 5 -11 0 -14 -3 -6 -6z"/> <path d="M1204 880 c1 -8 12 -17 25 -18 19 -3 21 -6 10 -14 -10 -7 -11 -9 -1 -6 22 6 19 23 -5 26 -12 2 -24 9 -26 15 -2 7 -3 5 -3 -3z"/> <path d="M437 883 c-24 -24 79 -48 822 -195 l784 -156 261 94 c143 51 254 93 247 94 -12 0 -12 3 -3 12 20 20 13 29 -8 11 -20 -18 -510 -194 -520 -188 -10 6 -383 80 -1030 205 -146 28 -303 59 -350 70 -47 10 -104 21 -128 25 -23 4 -49 13 -56 20 -7 8 -16 11 -19 8z"/> <path d="M880 880 c0 -5 5 -10 10 -10 6 0 10 5 10 10 0 6 -4 10 -10 10 -5 0 -10 -4 -10 -10z"/> <path d="M956 871 c-19 -7 -19 -8 2 -13 12 -4 26 0 33 8 13 16 -2 18 -35 5z"/> <path d="M1145 870 c3 -5 8 -10 11 -10 2 0 4 5 4 10 0 6 -5 10 -11 10 -5 0 -7 -4 -4 -10z"/> <path d="M1070 849 c0 -5 5 -7 10 -4 6 3 10 8 10 11 0 2 -4 4 -10 4 -5 0 -10 -5 -10 -11z"/> <path d="M1108 853 c6 -2 18 -2 25 0 6 3 1 5 -13 5 -14 0 -19 -2 -12 -5z"/> <path d="M1315 850 c3 -4 14 -10 25 -13 11 -3 18 -2 15 3 -3 4 -14 10 -25 13 -11 3 -18 2 -15 -3z"/> <path d="M782 835 c-11 -12 -10 -15 3 -15 8 0 15 7 15 15 0 18 -2 18 -18 0z"/> <path d="M1028 843 c7 -3 16 -2 19 1 4 3 -2 6 -13 5 -11 0 -14 -3 -6 -6z"/> <path d="M880 820 c0 -11 4 -20 9 -20 5 0 7 9 4 20 -3 11 -7 20 -9 20 -2 0 -4 -9 -4 -20z"/> <path d="M1420 828 l25 -11 -25 -7 c-20 -7 -21 -8 -5 -9 11 0 27 4 35 9 13 9 13 11 0 20 -8 5 -24 9 -35 9 -17 0 -16 -2 5 -11z"/> <path d="M1308 823 c6 -2 18 -2 25 0 6 3 1 5 -13 5 -14 0 -19 -2 -12 -5z"/> <path d="M2048 800 c-1 -16 -2 -43 -3 -60 -2 -36 -3 -36 105 -1 67 21 86 31 88 47 3 19 -5 22 -80 32 -110 16 -108 16 -110 -18z m150 -5 c2 -2 -27 -13 -64 -24 -37 -11 -70 -19 -72 -17 -1 2 0 15 4 30 6 25 8 26 68 20 33 -3 63 -8 64 -9z"/> <path d="M2385 790 c3 -5 18 -10 32 -10 32 0 28 5 -10 14 -19 4 -26 3 -22 -4z"/> <path d="M1988 783 c6 -2 18 -2 25 0 6 3 1 5 -13 5 -14 0 -19 -2 -12 -5z"/> <path d="M1438 773 c7 -3 16 -2 19 1 4 3 -2 6 -13 5 -11 0 -14 -3 -6 -6z"/> <path d="M1750 770 c16 -5 19 -8 8 -9 -9 -1 -19 -5 -22 -10 -4 -5 10 -4 29 2 39 12 30 27 -15 26 l-25 -1 25 -8z"/> <path d="M1128 753 c7 -3 16 -2 19 1 4 3 -2 6 -13 5 -11 0 -14 -3 -6 -6z"/> <path d="M1851 756 c12 -10 60 -16 54 -6 -3 5 -18 10 -32 10 -15 0 -24 -2 -22 -4z"/> <path d="M1808 733 c7 -3 16 -2 19 1 4 3 -2 6 -13 5 -11 0 -14 -3 -6 -6z"/> <path d="M1858 733 c7 -3 16 -2 19 1 4 3 -2 6 -13 5 -11 0 -14 -3 -6 -6z"/> <path d="M1985 730 c19 -8 18 -9 -4 -9 -13 -1 -22 -4 -18 -7 9 -9 68 7 61 17 -3 5 -17 9 -32 8 -24 0 -25 -1 -7 -9z"/> <path d="M1472 708 c5 -32 28 -35 28 -4 0 17 -5 26 -16 26 -10 0 -14 -7 -12 -22z"/> <path d="M1765 720 c-16 -7 -17 -9 -3 -9 9 -1 20 4 23 9 7 11 7 11 -20 0z"/> <path d="M1580 685 c0 -16 6 -25 15 -25 16 0 19 9 9 34 -9 25 -24 19 -24 -9z"/> <path d="M2282 701 c-8 -5 -12 -16 -10 -24 2 -11 7 -14 16 -8 8 5 12 16 10 24 -2 11 -7 14 -16 8z"/> <path d="M1438 693 c7 -3 16 -2 19 1 4 3 -2 6 -13 5 -11 0 -14 -3 -6 -6z"/> <path d="M2048 693 c7 -3 16 -2 19 1 4 3 -2 6 -13 5 -11 0 -14 -3 -6 -6z"/> <path d="M2010 680 c-9 -6 -10 -10 -3 -10 6 0 15 5 18 10 8 12 4 12 -15 0z"/> <path d="M1538 673 c7 -3 16 -2 19 1 4 3 -2 6 -13 5 -11 0 -14 -3 -6 -6z"/> <path d="M1807 653 c-13 -12 -7 -33 8 -33 8 0 15 9 15 20 0 20 -11 26 -23 13z"/> <path d="M2210 650 c-8 -5 -10 -10 -5 -10 6 0 17 5 25 10 8 5 11 10 5 10 -5 0 -17 -5 -25 -10z"/> <path d="M1748 633 c7 -3 16 -2 19 1 4 3 -2 6 -13 5 -11 0 -14 -3 -6 -6z"/> <path d="M1920 623 c0 -7 -7 -13 -17 -13 -27 0 -11 -7 32 -13 22 -4 34 -4 28 -1 -7 3 -13 14 -13 23 0 10 -7 18 -15 18 -8 0 -15 -6 -15 -14z"/> <path d="M2150 630 c-18 -12 -2 -12 25 0 13 6 15 9 5 9 -8 0 -22 -4 -30 -9z"/> <path d="M2085 615 c-16 -7 -33 -11 -37 -8 -5 2 -8 -3 -8 -12 0 -11 -7 -14 -27 -10 -25 5 -26 4 -6 -4 15 -7 31 -6 50 3 15 7 39 17 52 23 14 5 21 12 15 15 -5 3 -22 0 -39 -7z"/> </g> </svg> 