 <svg  version="1.0" xmlns="http://www.w3.org/2000/svg"  width="300.000000pt" height="141.000000pt" viewBox="0 0 300.000000 141.000000"  preserveAspectRatio="xMidYMid meet">  <g transform="translate(0.000000,141.000000) scale(0.100000,-0.100000)" fill="#ffffff" stroke="none"> <path d="M2688 1088 c-4 -106 1 -158 14 -158 6 0 8 15 6 35 -2 20 0 35 7 35 6 0 7 3 0 8 -5 4 -10 30 -10 57 0 28 5 53 10 57 6 5 6 8 -2 8 -6 0 -9 9 -6 20 3 11 1 20 -5 20 -6 0 -12 -34 -14 -82z"/> <path d="M2740 1126 c0 -21 5 -25 33 -24 17 1 35 6 39 12 5 8 8 7 8 -1 0 -7 6 -13 14 -13 8 0 17 6 19 13 4 10 6 10 6 0 2 -25 31 -13 31 12 0 26 -24 35 -33 13 -4 -10 -6 -10 -6 0 -1 6 -7 12 -15 12 -8 0 -17 -6 -19 -12 -4 -10 -6 -10 -6 0 -1 18 -29 14 -34 -5 -4 -17 -5 -17 -6 0 -2 27 -31 21 -31 -7z m57 -8 c-3 -8 -6 -5 -6 6 -1 11 2 17 5 13 3 -3 4 -12 1 -19z m40 0 c-3 -8 -6 -5 -6 6 -1 11 2 17 5 13 3 -3 4 -12 1 -19z m40 0 c-3 -8 -6 -5 -6 6 -1 11 2 17 5 13 3 -3 4 -12 1 -19z"/> <path d="M113 1123 c9 -2 25 -2 35 0 9 3 1 5 -18 5 -19 0 -27 -2 -17 -5z"/> <path d="M183 1123 c9 -2 25 -2 35 0 9 3 1 5 -18 5 -19 0 -27 -2 -17 -5z"/> <path d="M253 1123 c9 -2 25 -2 35 0 9 3 1 5 -18 5 -19 0 -27 -2 -17 -5z"/> <path d="M323 1123 c9 -2 25 -2 35 0 9 3 1 5 -18 5 -19 0 -27 -2 -17 -5z"/> <path d="M418 1123 c7 -3 16 -2 19 1 4 3 -2 6 -13 5 -11 0 -14 -3 -6 -6z"/> <path d="M463 1123 c9 -2 25 -2 35 0 9 3 1 5 -18 5 -19 0 -27 -2 -17 -5z"/> <path d="M558 1123 c7 -3 16 -2 19 1 4 3 -2 6 -13 5 -11 0 -14 -3 -6 -6z"/> <path d="M628 1123 c7 -3 16 -2 19 1 4 3 -2 6 -13 5 -11 0 -14 -3 -6 -6z"/> <path d="M698 1123 c7 -3 16 -2 19 1 4 3 -2 6 -13 5 -11 0 -14 -3 -6 -6z"/> <path d="M768 1123 c7 -3 16 -2 19 1 4 3 -2 6 -13 5 -11 0 -14 -3 -6 -6z"/> <path d="M838 1123 c7 -3 16 -2 19 1 4 3 -2 6 -13 5 -11 0 -14 -3 -6 -6z"/> <path d="M908 1123 c7 -3 16 -2 19 1 4 3 -2 6 -13 5 -11 0 -14 -3 -6 -6z"/> <path d="M978 1123 c7 -3 16 -2 19 1 4 3 -2 6 -13 5 -11 0 -14 -3 -6 -6z"/> <path d="M1048 1123 c7 -3 16 -2 19 1 4 3 -2 6 -13 5 -11 0 -14 -3 -6 -6z"/> <path d="M1118 1123 c7 -3 16 -2 19 1 4 3 -2 6 -13 5 -11 0 -14 -3 -6 -6z"/> <path d="M1188 1123 c7 -3 16 -2 19 1 4 3 -2 6 -13 5 -11 0 -14 -3 -6 -6z"/> <path d="M1258 1123 c7 -3 16 -2 19 1 4 3 -2 6 -13 5 -11 0 -14 -3 -6 -6z"/> <path d="M1328 1123 c7 -3 16 -2 19 1 4 3 -2 6 -13 5 -11 0 -14 -3 -6 -6z"/> <path d="M1398 1123 c7 -3 16 -2 19 1 4 3 -2 6 -13 5 -11 0 -14 -3 -6 -6z"/> <path d="M1468 1123 c7 -3 16 -2 19 1 4 3 -2 6 -13 5 -11 0 -14 -3 -6 -6z"/> <path d="M1538 1123 c7 -3 16 -2 19 1 4 3 -2 6 -13 5 -11 0 -14 -3 -6 -6z"/> <path d="M1613 1123 c9 -2 25 -2 35 0 9 3 1 5 -18 5 -19 0 -27 -2 -17 -5z"/> <path d="M1683 1123 c9 -2 25 -2 35 0 9 3 1 5 -18 5 -19 0 -27 -2 -17 -5z"/> <path d="M1753 1123 c9 -2 25 -2 35 0 9 3 1 5 -18 5 -19 0 -27 -2 -17 -5z"/> <path d="M1823 1123 c9 -2 25 -2 35 0 9 3 1 5 -18 5 -19 0 -27 -2 -17 -5z"/> <path d="M1893 1123 c9 -2 25 -2 35 0 9 3 1 5 -18 5 -19 0 -27 -2 -17 -5z"/> <path d="M1963 1123 c9 -2 25 -2 35 0 9 3 1 5 -18 5 -19 0 -27 -2 -17 -5z"/> <path d="M2058 1123 c7 -3 16 -2 19 1 4 3 -2 6 -13 5 -11 0 -14 -3 -6 -6z"/> <path d="M2128 1123 c7 -3 16 -2 19 1 4 3 -2 6 -13 5 -11 0 -14 -3 -6 -6z"/> <path d="M2198 1123 c7 -3 16 -2 19 1 4 3 -2 6 -13 5 -11 0 -14 -3 -6 -6z"/> <path d="M2268 1123 c7 -3 16 -2 19 1 4 3 -2 6 -13 5 -11 0 -14 -3 -6 -6z"/> <path d="M2338 1123 c7 -3 16 -2 19 1 4 3 -2 6 -13 5 -11 0 -14 -3 -6 -6z"/> <path d="M2408 1123 c7 -3 16 -2 19 1 4 3 -2 6 -13 5 -11 0 -14 -3 -6 -6z"/> <path d="M2478 1123 c7 -3 16 -2 19 1 4 3 -2 6 -13 5 -11 0 -14 -3 -6 -6z"/> <path d="M2548 1123 c7 -3 16 -2 19 1 4 3 -2 6 -13 5 -11 0 -14 -3 -6 -6z"/> <path d="M2618 1123 c7 -3 16 -2 19 1 4 3 -2 6 -13 5 -11 0 -14 -3 -6 -6z"/> <path d="M2747 1023 c9 -3 10 -10 3 -24 -7 -13 -7 -19 0 -19 5 0 10 4 10 9 0 5 3 16 6 25 4 11 1 16 -12 15 -11 0 -14 -3 -7 -6z"/> <path d="M2780 1006 c0 -27 15 -42 25 -26 5 8 11 8 20 0 10 -8 15 -8 20 0 5 8 11 8 19 1 16 -14 26 -4 26 26 0 24 -25 32 -33 11 -4 -10 -6 -10 -6 0 -1 6 -7 12 -15 12 -8 0 -17 -6 -19 -12 -4 -10 -6 -10 -6 0 -2 24 -31 12 -31 -12z m17 -18 c-3 -7 -5 -2 -5 12 0 14 2 19 5 13 2 -7 2 -19 0 -25z m40 0 c-3 -7 -5 -2 -5 12 0 14 2 19 5 13 2 -7 2 -19 0 -25z m40 10 c-3 -8 -6 -5 -6 6 -1 11 2 17 5 13 3 -3 4 -12 1 -19z"/> <path d="M2610 1000 c-8 -16 -15 -18 -35 -10 -17 6 -25 6 -25 -1 0 -6 -4 -7 -10 -4 -5 3 -19 1 -31 -6 -17 -9 -23 -8 -30 2 -7 11 -9 10 -9 -4 0 -10 -7 -25 -15 -33 -8 -9 -15 -26 -15 -40 0 -14 -6 -24 -14 -24 -7 0 -17 -10 -21 -22 -8 -22 -8 -22 -12 5 -5 32 -23 36 -30 7 -3 -11 -9 -20 -13 -20 -5 0 -11 -8 -13 -17 -3 -10 -5 0 -6 22 -1 36 -4 41 -27 43 -21 1 -28 -5 -40 -36 -8 -20 -19 -45 -24 -54 -13 -23 -13 -78 -1 -78 6 0 13 20 17 45 3 25 10 45 15 45 5 0 10 10 10 23 1 16 2 18 6 5 2 -10 8 -18 13 -18 5 0 7 8 4 18 -5 14 -4 15 5 2 6 -8 11 -32 11 -52 0 -70 34 -59 46 15 7 42 23 33 24 -13 0 -24 1 -23 17 8 8 18 19 30 22 26 3 -3 11 11 17 32 6 21 16 40 22 42 7 2 10 -2 6 -12 -3 -9 -1 -16 5 -16 6 0 11 12 11 26 0 14 3 23 8 21 14 -9 52 12 52 29 0 13 3 14 15 4 8 -7 15 -23 15 -36 0 -15 6 -24 15 -24 10 0 15 10 15 29 0 17 5 33 10 36 13 8 30 -37 30 -77 0 -17 3 -28 7 -25 3 4 12 2 19 -4 11 -9 14 -82 14 -355 l0 -344 -1308 -2 c-719 -1 -1285 -3 -1257 -5 27 -3 53 -10 57 -16 6 -9 8 -9 8 1 0 9 46 12 194 12 146 0 196 -3 199 -12 4 -10 6 -10 6 0 1 9 48 12 202 12 131 0 198 -3 194 -10 -3 -5 -1 -10 4 -10 6 0 11 5 11 10 0 16 387 13 393 -2 4 -10 6 -10 6 0 1 18 387 18 394 0 4 -10 6 -10 6 0 1 18 387 18 394 0 4 -10 6 -10 6 0 1 18 397 18 404 0 4 -10 6 -10 6 0 1 8 20 12 59 12 31 0 53 4 47 8 -5 4 -10 30 -10 57 0 28 5 53 10 57 7 5 7 8 0 8 -5 0 -10 25 -10 55 0 30 5 55 10 55 7 0 7 3 0 8 -5 4 -10 31 -10 60 0 28 5 52 10 52 7 0 7 3 0 8 -5 4 -10 30 -10 57 0 28 5 53 10 58 7 5 7 10 0 15 -5 4 -10 30 -10 57 0 28 5 53 10 57 7 5 7 8 0 8 -6 0 -9 17 -7 39 2 21 -1 42 -7 45 -6 4 -11 20 -11 36 0 16 -7 35 -15 44 -8 8 -15 18 -15 23 0 15 -25 63 -32 63 -4 0 -12 -9 -18 -20z"/> <path d="M113 1003 c9 -2 25 -2 35 0 9 3 1 5 -18 5 -19 0 -27 -2 -17 -5z"/> <path d="M183 1003 c9 -2 25 -2 35 0 9 3 1 5 -18 5 -19 0 -27 -2 -17 -5z"/> <path d="M253 1003 c9 -2 25 -2 35 0 9 3 1 5 -18 5 -19 0 -27 -2 -17 -5z"/> <path d="M323 1003 c9 -2 25 -2 35 0 9 3 1 5 -18 5 -19 0 -27 -2 -17 -5z"/> <path d="M393 1003 c9 -2 25 -2 35 0 9 3 1 5 -18 5 -19 0 -27 -2 -17 -5z"/> <path d="M463 1003 c9 -2 25 -2 35 0 9 3 1 5 -18 5 -19 0 -27 -2 -17 -5z"/> <path d="M558 1003 c7 -3 16 -2 19 1 4 3 -2 6 -13 5 -11 0 -14 -3 -6 -6z"/> <path d="M628 1003 c7 -3 16 -2 19 1 4 3 -2 6 -13 5 -11 0 -14 -3 -6 -6z"/> <path d="M698 1003 c7 -3 16 -2 19 1 4 3 -2 6 -13 5 -11 0 -14 -3 -6 -6z"/> <path d="M768 1003 c7 -3 16 -2 19 1 4 3 -2 6 -13 5 -11 0 -14 -3 -6 -6z"/> <path d="M838 1003 c7 -3 16 -2 19 1 4 3 -2 6 -13 5 -11 0 -14 -3 -6 -6z"/> <path d="M908 1003 c7 -3 16 -2 19 1 4 3 -2 6 -13 5 -11 0 -14 -3 -6 -6z"/> <path d="M978 1003 c7 -3 16 -2 19 1 4 3 -2 6 -13 5 -11 0 -14 -3 -6 -6z"/> <path d="M1048 1003 c7 -3 16 -2 19 1 4 3 -2 6 -13 5 -11 0 -14 -3 -6 -6z"/> <path d="M1118 1003 c7 -3 16 -2 19 1 4 3 -2 6 -13 5 -11 0 -14 -3 -6 -6z"/> <path d="M1188 1003 c7 -3 16 -2 19 1 4 3 -2 6 -13 5 -11 0 -14 -3 -6 -6z"/> <path d="M1258 1003 c7 -3 16 -2 19 1 4 3 -2 6 -13 5 -11 0 -14 -3 -6 -6z"/> <path d="M1328 1003 c7 -3 16 -2 19 1 4 3 -2 6 -13 5 -11 0 -14 -3 -6 -6z"/> <path d="M1390 991 c-13 -25 -13 -61 0 -61 6 0 10 -11 10 -24 0 -36 18 -41 31 -9 8 20 13 24 17 13 3 -8 11 -19 18 -23 8 -5 14 -25 14 -47 0 -45 19 -66 21 -23 l1 28 8 -30 c4 -16 8 -51 9 -77 1 -58 21 -76 21 -20 0 30 4 41 19 45 16 4 20 -3 25 -41 3 -24 6 -58 6 -74 0 -16 7 -36 15 -44 13 -14 15 -13 15 8 0 18 2 20 9 8 6 -8 7 -18 5 -22 -7 -12 6 -48 17 -48 5 0 9 15 9 33 1 44 48 97 84 93 20 -3 30 4 46 31 11 19 24 31 30 28 5 -3 12 6 16 20 4 17 11 24 20 21 9 -3 14 1 14 12 1 9 7 28 14 41 l13 23 7 -23 c6 -23 7 -23 23 11 25 50 40 65 46 42 3 -9 5 -3 6 15 2 48 21 52 21 4 0 -23 5 -41 11 -41 6 0 9 6 6 13 -2 6 -1 21 3 32 6 16 9 12 15 -20 3 -22 10 -51 15 -65 8 -23 9 -23 10 10 2 32 3 31 16 -20 7 -30 15 -86 18 -125 6 -83 4 -75 15 -75 5 0 12 8 14 18 3 9 6 -1 7 -23 l2 -40 12 48 c6 27 15 45 19 41 4 -4 7 3 7 15 0 43 22 113 31 99 6 -9 9 -8 9 8 0 11 5 25 11 31 6 6 9 23 7 39 l-4 29 -11 -27 c-7 -14 -16 -29 -22 -32 -6 -4 -15 -26 -21 -49 -6 -23 -15 -51 -20 -62 -5 -11 -11 -27 -13 -35 -3 -8 -6 0 -6 18 -1 17 -5 32 -10 32 -4 0 -11 27 -15 60 -4 33 -11 60 -16 60 -6 0 -10 20 -10 45 0 47 -15 62 -23 23 -3 -18 -5 -17 -6 7 -1 17 -8 39 -16 49 -15 19 -15 19 -16 -5 l0 -24 -10 23 c-8 22 -29 22 -29 0 0 -6 -8 -18 -18 -27 -11 -9 -25 -27 -32 -41 l-14 -25 -6 25 c-7 24 -7 24 -23 -12 -9 -21 -25 -47 -36 -60 -12 -12 -21 -28 -21 -36 0 -8 -6 -12 -15 -8 -8 3 -15 0 -15 -7 -1 -21 -34 -52 -57 -54 -26 -2 -59 -29 -84 -68 -18 -28 -19 -28 -19 -7 0 12 -6 25 -14 28 -8 3 -12 12 -9 20 3 8 0 14 -6 14 -6 0 -11 17 -11 38 0 20 -4 43 -9 51 -12 19 -51 25 -52 8 0 -6 -6 11 -13 38 -7 29 -17 49 -24 47 -7 -1 -12 9 -12 23 0 14 -4 25 -9 25 -5 0 -15 15 -21 33 l-12 32 -8 -25 c-6 -22 -8 -23 -15 -7 -6 15 -10 16 -16 5 -6 -9 -9 -7 -9 9 0 12 6 24 13 26 9 4 9 6 0 6 -7 1 -17 -8 -23 -18z"/> <path d="M1473 1003 c9 -2 25 -2 35 0 9 3 1 5 -18 5 -19 0 -27 -2 -17 -5z"/> <path d="M1543 1003 c9 -2 25 -2 35 0 9 3 1 5 -18 5 -19 0 -27 -2 -17 -5z"/> <path d="M1613 1003 c9 -2 25 -2 35 0 9 3 1 5 -18 5 -19 0 -27 -2 -17 -5z"/> <path d="M1683 1003 c9 -2 25 -2 35 0 9 3 1 5 -18 5 -19 0 -27 -2 -17 -5z"/> <path d="M1753 1003 c9 -2 25 -2 35 0 9 3 1 5 -18 5 -19 0 -27 -2 -17 -5z"/> <path d="M1823 1003 c9 -2 25 -2 35 0 9 3 1 5 -18 5 -19 0 -27 -2 -17 -5z"/> <path d="M1893 1003 c9 -2 25 -2 35 0 9 3 1 5 -18 5 -19 0 -27 -2 -17 -5z"/> <path d="M1963 1003 c9 -2 25 -2 35 0 9 3 1 5 -18 5 -19 0 -27 -2 -17 -5z"/> <path d="M2058 1003 c7 -3 16 -2 19 1 4 3 -2 6 -13 5 -11 0 -14 -3 -6 -6z"/> <path d="M2128 1003 c7 -3 16 -2 19 1 4 3 -2 6 -13 5 -11 0 -14 -3 -6 -6z"/> <path d="M2198 1003 c7 -3 16 -2 19 1 4 3 -2 6 -13 5 -11 0 -14 -3 -6 -6z"/> <path d="M2268 1003 c7 -3 16 -2 19 1 4 3 -2 6 -13 5 -11 0 -14 -3 -6 -6z"/> <path d="M2338 1003 c7 -3 16 -2 19 1 4 3 -2 6 -13 5 -11 0 -14 -3 -6 -6z"/> <path d="M2408 1003 c7 -3 16 -2 19 1 4 3 -2 6 -13 5 -11 0 -14 -3 -6 -6z"/> <path d="M2478 1003 c7 -3 16 -2 19 1 4 3 -2 6 -13 5 -11 0 -14 -3 -6 -6z"/> <path d="M1317 908 c-9 -29 -18 -64 -20 -78 -2 -17 -6 -7 -12 28 -4 30 -11 48 -15 42 -4 -6 -11 -11 -16 -10 -5 0 -14 -23 -20 -52 -5 -29 -13 -46 -16 -38 -5 12 -7 11 -13 -5 -25 -66 -59 -131 -71 -138 -8 -4 -14 -15 -14 -24 0 -9 -6 -13 -14 -10 -16 6 -71 -31 -93 -62 -15 -22 -43 -28 -43 -10 0 8 -5 8 -15 -1 -12 -10 -16 -8 -25 15 -10 25 -30 27 -30 2 -1 -7 -9 -22 -19 -34 -14 -17 -26 -21 -52 -18 -22 3 -29 1 -20 -4 11 -7 11 -13 -3 -32 -13 -19 -16 -20 -16 -6 0 20 -11 22 -28 5 -9 -9 -15 -9 -23 -1 -15 15 -65 -12 -73 -40 l-6 -22 -19 24 c-12 16 -20 20 -25 12 -6 -9 -11 -9 -22 0 -10 8 -14 8 -14 1 0 -6 -6 -9 -13 -6 -7 2 -27 -10 -45 -27 -22 -22 -44 -33 -67 -35 -32 -2 -35 0 -35 27 0 38 -35 59 -46 27 -3 -12 -13 -28 -20 -36 -8 -7 -14 -20 -14 -28 0 -9 -9 -13 -28 -10 -20 2 -36 -4 -52 -21 -13 -13 -29 -22 -35 -19 -7 2 -25 -2 -41 -11 -16 -8 -40 -16 -53 -17 -13 0 -26 -6 -28 -12 -5 -16 48 -14 72 2 11 8 32 14 47 14 16 0 37 9 49 21 11 11 27 18 35 15 17 -6 74 49 74 71 0 7 5 13 10 13 6 0 10 -15 10 -34 0 -37 17 -57 30 -36 5 7 23 13 42 12 26 -1 38 6 58 32 22 30 26 32 37 17 11 -14 12 -14 13 3 0 15 2 16 15 6 13 -11 13 -15 3 -21 -10 -7 -10 -9 0 -9 7 0 17 10 22 23 6 16 9 17 9 5 2 -38 45 -32 55 8 4 14 11 22 16 19 5 -3 12 0 15 5 5 7 12 5 21 -7 7 -10 14 -13 14 -6 0 7 7 10 15 7 11 -5 14 -1 10 12 -4 12 -1 11 6 -3 16 -30 27 -29 35 2 4 16 16 28 32 32 28 7 62 37 62 56 1 6 8 -1 16 -16 10 -19 21 -27 31 -23 8 3 22 6 31 6 9 0 26 13 36 29 20 30 73 67 83 58 4 -5 30 19 61 58 4 6 14 24 21 42 7 18 18 30 26 27 8 -4 17 14 26 56 7 33 18 59 24 57 5 -2 11 -28 13 -58 4 -62 22 -93 22 -38 0 38 34 147 50 163 7 7 10 3 10 -11 0 -12 5 -25 10 -28 14 -9 12 36 -2 68 -19 40 -33 33 -51 -25z"/> <path d="M2740 886 c0 -27 15 -42 25 -26 5 8 11 8 20 0 10 -8 16 -7 23 6 8 15 10 15 16 -1 5 -14 9 -15 20 -6 10 8 16 9 21 1 10 -16 25 -1 25 26 0 25 -24 34 -33 12 -4 -10 -6 -10 -6 0 -1 6 -7 12 -15 12 -8 0 -17 -6 -19 -12 -4 -10 -6 -10 -6 0 -1 17 -31 15 -31 -3 0 -9 -6 -12 -16 -8 -13 5 -13 7 -2 14 10 7 9 9 -4 9 -12 0 -18 -8 -18 -24z m57 -8 c-3 -8 -6 -5 -6 6 -1 11 2 17 5 13 3 -3 4 -12 1 -19z m40 0 c-3 -8 -6 -5 -6 6 -1 11 2 17 5 13 3 -3 4 -12 1 -19z m40 0 c-3 -8 -6 -5 -6 6 -1 11 2 17 5 13 3 -3 4 -12 1 -19z"/> <path d="M113 883 c9 -2 25 -2 35 0 9 3 1 5 -18 5 -19 0 -27 -2 -17 -5z"/> <path d="M183 883 c9 -2 25 -2 35 0 9 3 1 5 -18 5 -19 0 -27 -2 -17 -5z"/> <path d="M253 883 c9 -2 25 -2 35 0 9 3 1 5 -18 5 -19 0 -27 -2 -17 -5z"/> <path d="M323 883 c9 -2 25 -2 35 0 9 3 1 5 -18 5 -19 0 -27 -2 -17 -5z"/> <path d="M418 883 c7 -3 16 -2 19 1 4 3 -2 6 -13 5 -11 0 -14 -3 -6 -6z"/> <path d="M463 883 c9 -2 25 -2 35 0 9 3 1 5 -18 5 -19 0 -27 -2 -17 -5z"/> <path d="M558 883 c7 -3 16 -2 19 1 4 3 -2 6 -13 5 -11 0 -14 -3 -6 -6z"/> <path d="M628 883 c7 -3 16 -2 19 1 4 3 -2 6 -13 5 -11 0 -14 -3 -6 -6z"/> <path d="M698 883 c7 -3 16 -2 19 1 4 3 -2 6 -13 5 -11 0 -14 -3 -6 -6z"/> <path d="M768 883 c7 -3 16 -2 19 1 4 3 -2 6 -13 5 -11 0 -14 -3 -6 -6z"/> <path d="M838 883 c7 -3 16 -2 19 1 4 3 -2 6 -13 5 -11 0 -14 -3 -6 -6z"/> <path d="M908 883 c7 -3 16 -2 19 1 4 3 -2 6 -13 5 -11 0 -14 -3 -6 -6z"/> <path d="M978 883 c7 -3 16 -2 19 1 4 3 -2 6 -13 5 -11 0 -14 -3 -6 -6z"/> <path d="M1048 883 c7 -3 16 -2 19 1 4 3 -2 6 -13 5 -11 0 -14 -3 -6 -6z"/> <path d="M1118 883 c7 -3 16 -2 19 1 4 3 -2 6 -13 5 -11 0 -14 -3 -6 -6z"/> <path d="M1188 883 c7 -3 16 -2 19 1 4 3 -2 6 -13 5 -11 0 -14 -3 -6 -6z"/> <path d="M1538 883 c7 -3 16 -2 19 1 4 3 -2 6 -13 5 -11 0 -14 -3 -6 -6z"/> <path d="M1613 883 c9 -2 25 -2 35 0 9 3 1 5 -18 5 -19 0 -27 -2 -17 -5z"/> <path d="M1683 883 c9 -2 25 -2 35 0 9 3 1 5 -18 5 -19 0 -27 -2 -17 -5z"/> <path d="M1753 883 c9 -2 25 -2 35 0 9 3 1 5 -18 5 -19 0 -27 -2 -17 -5z"/> <path d="M1848 883 c7 -3 16 -2 19 1 4 3 -2 6 -13 5 -11 0 -14 -3 -6 -6z"/> <path d="M2128 883 c7 -3 16 -2 19 1 4 3 -2 6 -13 5 -11 0 -14 -3 -6 -6z"/> <path d="M2198 883 c7 -3 16 -2 19 1 4 3 -2 6 -13 5 -11 0 -14 -3 -6 -6z"/> <path d="M2548 883 c7 -3 16 -2 19 1 4 3 -2 6 -13 5 -11 0 -14 -3 -6 -6z"/> <path d="M2740 775 c0 -8 5 -15 10 -15 6 0 10 -5 10 -11 0 -5 -5 -7 -12 -3 -7 4 -8 3 -4 -5 6 -9 11 -9 21 -1 10 8 15 8 20 0 5 -8 10 -8 20 0 10 8 15 8 20 0 5 -8 10 -8 20 0 10 8 14 8 17 -1 7 -20 28 0 28 27 0 25 -24 34 -33 12 -4 -10 -6 -10 -6 0 -1 6 -7 12 -15 12 -8 0 -17 -6 -19 -12 -4 -10 -6 -10 -6 0 -1 17 -31 15 -31 -3 0 -9 -6 -12 -16 -8 -13 5 -13 7 -2 14 10 7 9 9 -4 9 -10 0 -18 -7 -18 -15z m57 -27 c-3 -7 -5 -2 -5 12 0 14 2 19 5 13 2 -7 2 -19 0 -25z m40 0 c-3 -7 -5 -2 -5 12 0 14 2 19 5 13 2 -7 2 -19 0 -25z m40 0 c-3 -7 -5 -2 -5 12 0 14 2 19 5 13 2 -7 2 -19 0 -25z"/> <path d="M113 763 c9 -2 25 -2 35 0 9 3 1 5 -18 5 -19 0 -27 -2 -17 -5z"/> <path d="M183 763 c9 -2 25 -2 35 0 9 3 1 5 -18 5 -19 0 -27 -2 -17 -5z"/> <path d="M253 763 c9 -2 25 -2 35 0 9 3 1 5 -18 5 -19 0 -27 -2 -17 -5z"/> <path d="M323 763 c9 -2 25 -2 35 0 9 3 1 5 -18 5 -19 0 -27 -2 -17 -5z"/> <path d="M418 763 c7 -3 16 -2 19 1 4 3 -2 6 -13 5 -11 0 -14 -3 -6 -6z"/> <path d="M463 763 c9 -2 25 -2 35 0 9 3 1 5 -18 5 -19 0 -27 -2 -17 -5z"/> <path d="M558 763 c7 -3 16 -2 19 1 4 3 -2 6 -13 5 -11 0 -14 -3 -6 -6z"/> <path d="M628 763 c7 -3 16 -2 19 1 4 3 -2 6 -13 5 -11 0 -14 -3 -6 -6z"/> <path d="M698 763 c7 -3 16 -2 19 1 4 3 -2 6 -13 5 -11 0 -14 -3 -6 -6z"/> <path d="M768 763 c7 -3 16 -2 19 1 4 3 -2 6 -13 5 -11 0 -14 -3 -6 -6z"/> <path d="M838 763 c7 -3 16 -2 19 1 4 3 -2 6 -13 5 -11 0 -14 -3 -6 -6z"/> <path d="M908 763 c7 -3 16 -2 19 1 4 3 -2 6 -13 5 -11 0 -14 -3 -6 -6z"/> <path d="M978 763 c7 -3 16 -2 19 1 4 3 -2 6 -13 5 -11 0 -14 -3 -6 -6z"/> <path d="M1048 763 c7 -3 16 -2 19 1 4 3 -2 6 -13 5 -11 0 -14 -3 -6 -6z"/> <path d="M1118 763 c7 -3 16 -2 19 1 4 3 -2 6 -13 5 -11 0 -14 -3 -6 -6z"/> <path d="M1328 763 c7 -3 16 -2 19 1 4 3 -2 6 -13 5 -11 0 -14 -3 -6 -6z"/> <path d="M1398 763 c7 -3 16 -2 19 1 4 3 -2 6 -13 5 -11 0 -14 -3 -6 -6z"/> <path d="M1468 763 c7 -3 16 -2 19 1 4 3 -2 6 -13 5 -11 0 -14 -3 -6 -6z"/> <path d="M1623 763 c9 -2 23 -2 30 0 6 3 -1 5 -18 5 -16 0 -22 -2 -12 -5z"/> <path d="M1683 763 c9 -2 25 -2 35 0 9 3 1 5 -18 5 -19 0 -27 -2 -17 -5z"/> <path d="M1748 763 c7 -3 16 -2 19 1 4 3 -2 6 -13 5 -11 0 -14 -3 -6 -6z"/> <path d="M1893 763 c9 -2 25 -2 35 0 9 3 1 5 -18 5 -19 0 -27 -2 -17 -5z"/> <path d="M1963 763 c9 -2 25 -2 35 0 9 3 1 5 -18 5 -19 0 -27 -2 -17 -5z"/> <path d="M2128 763 c7 -3 16 -2 19 1 4 3 -2 6 -13 5 -11 0 -14 -3 -6 -6z"/> <path d="M2408 763 c7 -3 16 -2 19 1 4 3 -2 6 -13 5 -11 0 -14 -3 -6 -6z"/> <path d="M2478 763 c7 -3 16 -2 19 1 4 3 -2 6 -13 5 -11 0 -14 -3 -6 -6z"/> <path d="M2548 763 c7 -3 16 -2 19 1 4 3 -2 6 -13 5 -11 0 -14 -3 -6 -6z"/> <path d="M2618 763 c7 -3 16 -2 19 1 4 3 -2 6 -13 5 -11 0 -14 -3 -6 -6z"/> <path d="M2910 720 c0 -5 8 -10 18 -11 14 0 14 -2 2 -7 -17 -8 -25 -47 -11 -56 18 -11 41 5 32 22 -5 9 -5 26 0 39 7 20 5 23 -16 23 -14 0 -25 -4 -25 -10z"/> <path d="M2759 663 c-1 -5 -1 -12 0 -16 1 -5 -3 -6 -8 -3 -5 4 -12 2 -16 -4 -3 -5 0 -10 9 -10 8 0 17 -6 19 -12 3 -7 6 2 6 20 1 28 -7 46 -10 25z"/> <path d="M2780 646 c0 -27 15 -42 25 -26 5 8 11 8 20 0 10 -8 15 -8 20 1 6 8 9 8 15 -1 11 -18 30 -2 30 26 0 25 -24 34 -33 12 -4 -10 -6 -10 -6 0 -1 6 -7 12 -15 12 -8 0 -17 -6 -19 -12 -4 -10 -6 -10 -6 0 -2 24 -31 12 -31 -12z m17 -18 c-3 -7 -5 -2 -5 12 0 14 2 19 5 13 2 -7 2 -19 0 -25z m40 0 c-3 -7 -5 -2 -5 12 0 14 2 19 5 13 2 -7 2 -19 0 -25z m40 0 c-3 -7 -5 -2 -5 12 0 14 2 19 5 13 2 -7 2 -19 0 -25z"/> <path d="M100 640 c0 -5 5 -10 10 -10 6 0 10 5 10 10 0 6 -4 10 -10 10 -5 0 -10 -4 -10 -10z"/> <path d="M140 640 c0 -5 5 -10 10 -10 6 0 10 5 10 10 0 6 -4 10 -10 10 -5 0 -10 -4 -10 -10z"/> <path d="M170 640 c0 -5 5 -10 10 -10 6 0 10 5 10 10 0 6 -4 10 -10 10 -5 0 -10 -4 -10 -10z"/> <path d="M210 640 c0 -5 5 -10 10 -10 6 0 10 5 10 10 0 6 -4 10 -10 10 -5 0 -10 -4 -10 -10z"/> <path d="M240 640 c0 -5 5 -10 10 -10 6 0 10 5 10 10 0 6 -4 10 -10 10 -5 0 -10 -4 -10 -10z"/> <path d="M280 640 c0 -5 5 -10 10 -10 6 0 10 5 10 10 0 6 -4 10 -10 10 -5 0 -10 -4 -10 -10z"/> <path d="M310 640 c0 -5 5 -10 10 -10 6 0 10 5 10 10 0 6 -4 10 -10 10 -5 0 -10 -4 -10 -10z"/> <path d="M350 640 c0 -5 5 -10 10 -10 6 0 10 5 10 10 0 6 -4 10 -10 10 -5 0 -10 -4 -10 -10z"/> <path d="M380 640 c0 -5 5 -10 10 -10 6 0 10 5 10 10 0 6 -4 10 -10 10 -5 0 -10 -4 -10 -10z"/> <path d="M420 640 c0 -5 5 -10 10 -10 6 0 10 5 10 10 0 6 -4 10 -10 10 -5 0 -10 -4 -10 -10z"/> <path d="M450 640 c0 -5 5 -10 10 -10 6 0 10 5 10 10 0 6 -4 10 -10 10 -5 0 -10 -4 -10 -10z"/> <path d="M485 640 c-3 -5 1 -10 9 -10 9 0 16 5 16 10 0 6 -4 10 -9 10 -6 0 -13 -4 -16 -10z"/> <path d="M520 640 c0 -5 5 -10 10 -10 6 0 10 5 10 10 0 6 -4 10 -10 10 -5 0 -10 -4 -10 -10z"/> <path d="M555 640 c-3 -5 1 -10 9 -10 9 0 16 5 16 10 0 6 -4 10 -9 10 -6 0 -13 -4 -16 -10z"/> <path d="M590 640 c0 -5 5 -10 10 -10 6 0 10 5 10 10 0 6 -4 10 -10 10 -5 0 -10 -4 -10 -10z"/> <path d="M625 640 c-3 -5 1 -10 9 -10 9 0 16 5 16 10 0 6 -4 10 -9 10 -6 0 -13 -4 -16 -10z"/> <path d="M660 640 c0 -5 5 -10 10 -10 6 0 10 5 10 10 0 6 -4 10 -10 10 -5 0 -10 -4 -10 -10z"/> <path d="M695 640 c-3 -5 1 -10 9 -10 9 0 16 5 16 10 0 6 -4 10 -9 10 -6 0 -13 -4 -16 -10z"/> <path d="M730 640 c0 -5 5 -10 10 -10 6 0 10 5 10 10 0 6 -4 10 -10 10 -5 0 -10 -4 -10 -10z"/> <path d="M765 640 c-3 -5 1 -10 10 -10 9 0 13 5 10 10 -3 6 -8 10 -10 10 -2 0 -7 -4 -10 -10z"/> <path d="M800 640 c0 -5 5 -10 10 -10 6 0 10 5 10 10 0 6 -4 10 -10 10 -5 0 -10 -4 -10 -10z"/> <path d="M830 640 c0 -5 7 -10 16 -10 8 0 12 5 9 10 -3 6 -10 10 -16 10 -5 0 -9 -4 -9 -10z"/> <path d="M870 640 c0 -5 5 -10 10 -10 6 0 10 5 10 10 0 6 -4 10 -10 10 -5 0 -10 -4 -10 -10z"/> <path d="M900 640 c0 -5 7 -10 15 -10 8 0 15 5 15 10 0 6 -7 10 -15 10 -8 0 -15 -4 -15 -10z"/> <path d="M940 640 c0 -5 5 -10 10 -10 6 0 10 5 10 10 0 6 -4 10 -10 10 -5 0 -10 -4 -10 -10z"/> <path d="M970 640 c0 -5 7 -10 15 -10 8 0 15 5 15 10 0 6 -7 10 -15 10 -8 0 -15 -4 -15 -10z"/> <path d="M1010 640 c0 -5 5 -10 10 -10 6 0 10 5 10 10 0 6 -4 10 -10 10 -5 0 -10 -4 -10 -10z"/> <path d="M1040 640 c0 -5 4 -10 9 -10 6 0 13 5 16 10 3 6 -1 10 -9 10 -9 0 -16 -4 -16 -10z"/> <path d="M1185 640 c-3 -5 1 -10 10 -10 9 0 13 5 10 10 -3 6 -8 10 -10 10 -2 0 -7 -4 -10 -10z"/> <path d="M1220 640 c0 -5 5 -10 10 -10 6 0 10 5 10 10 0 6 -4 10 -10 10 -5 0 -10 -4 -10 -10z"/> <path d="M1250 640 c0 -5 7 -10 16 -10 8 0 12 5 9 10 -3 6 -10 10 -16 10 -5 0 -9 -4 -9 -10z"/> <path d="M1290 640 c0 -5 5 -10 10 -10 6 0 10 5 10 10 0 6 -4 10 -10 10 -5 0 -10 -4 -10 -10z"/> <path d="M1320 640 c0 -5 5 -10 10 -10 6 0 10 5 10 10 0 6 -4 10 -10 10 -5 0 -10 -4 -10 -10z"/> <path d="M1360 640 c0 -5 5 -10 10 -10 6 0 10 5 10 10 0 6 -4 10 -10 10 -5 0 -10 -4 -10 -10z"/> <path d="M1390 640 c0 -5 7 -10 16 -10 8 0 12 5 9 10 -3 6 -10 10 -16 10 -5 0 -9 -4 -9 -10z"/> <path d="M1430 640 c0 -5 5 -10 10 -10 6 0 10 5 10 10 0 6 -4 10 -10 10 -5 0 -10 -4 -10 -10z"/> <path d="M1460 640 c0 -5 7 -10 16 -10 8 0 12 5 9 10 -3 6 -10 10 -16 10 -5 0 -9 -4 -9 -10z"/> <path d="M1500 640 c0 -5 5 -10 10 -10 6 0 10 5 10 10 0 6 -4 10 -10 10 -5 0 -10 -4 -10 -10z"/> <path d="M1530 640 c0 -5 5 -10 10 -10 6 0 10 5 10 10 0 6 -4 10 -10 10 -5 0 -10 -4 -10 -10z"/> <path d="M1740 640 c0 -5 5 -10 10 -10 6 0 10 5 10 10 0 6 -4 10 -10 10 -5 0 -10 -4 -10 -10z"/> <path d="M1780 640 c0 -5 5 -10 10 -10 6 0 10 5 10 10 0 6 -4 10 -10 10 -5 0 -10 -4 -10 -10z"/> <path d="M1810 640 c0 -5 5 -10 10 -10 6 0 10 5 10 10 0 6 -4 10 -10 10 -5 0 -10 -4 -10 -10z"/> <path d="M1845 640 c-3 -5 1 -10 9 -10 9 0 16 5 16 10 0 6 -4 10 -9 10 -6 0 -13 -4 -16 -10z"/> <path d="M1880 640 c0 -5 5 -10 10 -10 6 0 10 5 10 10 0 6 -4 10 -10 10 -5 0 -10 -4 -10 -10z"/> <path d="M1920 640 c0 -5 5 -10 10 -10 6 0 10 5 10 10 0 6 -4 10 -10 10 -5 0 -10 -4 -10 -10z"/> <path d="M1950 640 c0 -5 5 -10 10 -10 6 0 10 5 10 10 0 6 -4 10 -10 10 -5 0 -10 -4 -10 -10z"/> <path d="M1990 640 c0 -5 5 -10 10 -10 6 0 10 5 10 10 0 6 -4 10 -10 10 -5 0 -10 -4 -10 -10z"/> <path d="M2020 640 c0 -5 5 -10 10 -10 6 0 10 5 10 10 0 6 -4 10 -10 10 -5 0 -10 -4 -10 -10z"/> <path d="M2055 640 c-3 -5 -1 -10 4 -10 6 0 11 5 11 10 0 6 -2 10 -4 10 -3 0 -8 -4 -11 -10z"/> <path d="M2190 640 c0 -5 7 -10 15 -10 8 0 15 5 15 10 0 6 -7 10 -15 10 -8 0 -15 -4 -15 -10z"/> <path d="M2230 640 c0 -5 5 -10 10 -10 6 0 10 5 10 10 0 6 -4 10 -10 10 -5 0 -10 -4 -10 -10z"/> <path d="M2265 640 c-3 -5 1 -10 9 -10 9 0 16 5 16 10 0 6 -4 10 -9 10 -6 0 -13 -4 -16 -10z"/> <path d="M2300 640 c0 -5 5 -10 10 -10 6 0 10 5 10 10 0 6 -4 10 -10 10 -5 0 -10 -4 -10 -10z"/> <path d="M2335 640 c-3 -5 1 -10 9 -10 9 0 16 5 16 10 0 6 -4 10 -9 10 -6 0 -13 -4 -16 -10z"/> <path d="M2370 640 c0 -5 5 -10 10 -10 6 0 10 5 10 10 0 6 -4 10 -10 10 -5 0 -10 -4 -10 -10z"/> <path d="M2400 640 c0 -5 7 -10 15 -10 8 0 15 5 15 10 0 6 -7 10 -15 10 -8 0 -15 -4 -15 -10z"/> <path d="M2440 640 c0 -5 5 -10 10 -10 6 0 10 5 10 10 0 6 -4 10 -10 10 -5 0 -10 -4 -10 -10z"/> <path d="M2470 640 c0 -5 7 -10 15 -10 8 0 15 5 15 10 0 6 -7 10 -15 10 -8 0 -15 -4 -15 -10z"/> <path d="M2510 640 c0 -5 5 -10 10 -10 6 0 10 5 10 10 0 6 -4 10 -10 10 -5 0 -10 -4 -10 -10z"/> <path d="M2540 640 c0 -5 7 -10 15 -10 8 0 15 5 15 10 0 6 -7 10 -15 10 -8 0 -15 -4 -15 -10z"/> <path d="M2580 640 c0 -5 5 -10 10 -10 6 0 10 5 10 10 0 6 -4 10 -10 10 -5 0 -10 -4 -10 -10z"/> <path d="M2610 640 c0 -5 7 -10 15 -10 8 0 15 5 15 10 0 6 -7 10 -15 10 -8 0 -15 -4 -15 -10z"/> <path d="M2650 640 c0 -5 5 -10 10 -10 6 0 10 5 10 10 0 6 -4 10 -10 10 -5 0 -10 -4 -10 -10z"/> <path d="M2910 628 c0 -4 9 -8 20 -8 11 0 20 4 20 8 0 4 -9 8 -20 8 -11 0 -20 -4 -20 -8z"/> <path d="M2913 597 c0 -7 8 -13 17 -13 9 0 17 6 17 13 0 7 -8 13 -17 13 -9 0 -17 -6 -17 -13z"/> <path d="M2740 541 c0 -6 5 -13 10 -16 6 -3 10 -11 10 -16 0 -6 -4 -7 -10 -4 -5 3 -10 1 -10 -4 0 -6 7 -11 15 -11 10 0 15 10 15 30 0 20 -5 30 -15 30 -8 0 -15 -4 -15 -9z"/> <path d="M2787 543 c-13 -13 -7 -53 8 -53 8 0 15 6 15 13 0 8 3 8 9 -2 8 -12 12 -12 24 -2 12 9 16 9 19 0 6 -18 28 -1 28 21 0 22 -22 39 -28 21 -3 -9 -7 -9 -20 1 -12 11 -16 11 -20 0 -3 -9 -8 -10 -16 -3 -7 6 -16 8 -19 4z m10 -35 c-3 -7 -5 -2 -5 12 0 14 2 19 5 13 2 -7 2 -19 0 -25z m40 0 c-3 -7 -5 -2 -5 12 0 14 2 19 5 13 2 -7 2 -19 0 -25z m40 0 c-3 -7 -5 -2 -5 12 0 14 2 19 5 13 2 -7 2 -19 0 -25z"/> <path d="M113 513 c9 -2 25 -2 35 0 9 3 1 5 -18 5 -19 0 -27 -2 -17 -5z"/> <path d="M183 513 c9 -2 25 -2 35 0 9 3 1 5 -18 5 -19 0 -27 -2 -17 -5z"/> <path d="M253 513 c9 -2 25 -2 35 0 9 3 1 5 -18 5 -19 0 -27 -2 -17 -5z"/> <path d="M323 513 c9 -2 25 -2 35 0 9 3 1 5 -18 5 -19 0 -27 -2 -17 -5z"/> <path d="M393 513 c9 -2 25 -2 35 0 9 3 1 5 -18 5 -19 0 -27 -2 -17 -5z"/> <path d="M488 513 c7 -3 16 -2 19 1 4 3 -2 6 -13 5 -11 0 -14 -3 -6 -6z"/> <path d="M558 513 c7 -3 16 -2 19 1 4 3 -2 6 -13 5 -11 0 -14 -3 -6 -6z"/> <path d="M628 513 c7 -3 16 -2 19 1 4 3 -2 6 -13 5 -11 0 -14 -3 -6 -6z"/> <path d="M698 513 c7 -3 16 -2 19 1 4 3 -2 6 -13 5 -11 0 -14 -3 -6 -6z"/> <path d="M768 513 c7 -3 16 -2 19 1 4 3 -2 6 -13 5 -11 0 -14 -3 -6 -6z"/> <path d="M1048 513 c7 -3 16 -2 19 1 4 3 -2 6 -13 5 -11 0 -14 -3 -6 -6z"/> <path d="M1118 513 c7 -3 16 -2 19 1 4 3 -2 6 -13 5 -11 0 -14 -3 -6 -6z"/> <path d="M1188 513 c7 -3 16 -2 19 1 4 3 -2 6 -13 5 -11 0 -14 -3 -6 -6z"/> <path d="M1258 513 c7 -3 16 -2 19 1 4 3 -2 6 -13 5 -11 0 -14 -3 -6 -6z"/> <path d="M1328 513 c7 -3 16 -2 19 1 4 3 -2 6 -13 5 -11 0 -14 -3 -6 -6z"/> <path d="M1403 513 c9 -2 25 -2 35 0 9 3 1 5 -18 5 -19 0 -27 -2 -17 -5z"/> <path d="M1473 513 c9 -2 25 -2 35 0 9 3 1 5 -18 5 -19 0 -27 -2 -17 -5z"/> <path d="M1538 513 c7 -3 16 -2 19 1 4 3 -2 6 -13 5 -11 0 -14 -3 -6 -6z"/> <path d="M1613 513 c9 -2 25 -2 35 0 9 3 1 5 -18 5 -19 0 -27 -2 -17 -5z"/> <path d="M1683 513 c9 -2 25 -2 35 0 9 3 1 5 -18 5 -19 0 -27 -2 -17 -5z"/> <path d="M1753 513 c9 -2 25 -2 35 0 9 3 1 5 -18 5 -19 0 -27 -2 -17 -5z"/> <path d="M1823 513 c9 -2 25 -2 35 0 9 3 1 5 -18 5 -19 0 -27 -2 -17 -5z"/> <path d="M1893 513 c9 -2 25 -2 35 0 9 3 1 5 -18 5 -19 0 -27 -2 -17 -5z"/> <path d="M1963 513 c9 -2 25 -2 35 0 9 3 1 5 -18 5 -19 0 -27 -2 -17 -5z"/> <path d="M2058 513 c7 -3 16 -2 19 1 4 3 -2 6 -13 5 -11 0 -14 -3 -6 -6z"/> <path d="M2128 513 c7 -3 16 -2 19 1 4 3 -2 6 -13 5 -11 0 -14 -3 -6 -6z"/> <path d="M2198 513 c7 -3 16 -2 19 1 4 3 -2 6 -13 5 -11 0 -14 -3 -6 -6z"/> <path d="M2268 513 c7 -3 16 -2 19 1 4 3 -2 6 -13 5 -11 0 -14 -3 -6 -6z"/> <path d="M2338 513 c7 -3 16 -2 19 1 4 3 -2 6 -13 5 -11 0 -14 -3 -6 -6z"/> <path d="M2408 513 c7 -3 16 -2 19 1 4 3 -2 6 -13 5 -11 0 -14 -3 -6 -6z"/> <path d="M2478 513 c7 -3 16 -2 19 1 4 3 -2 6 -13 5 -11 0 -14 -3 -6 -6z"/> <path d="M2548 513 c7 -3 16 -2 19 1 4 3 -2 6 -13 5 -11 0 -14 -3 -6 -6z"/> <path d="M2618 513 c7 -3 16 -2 19 1 4 3 -2 6 -13 5 -11 0 -14 -3 -6 -6z"/> <path d="M2744 419 c-4 -8 -3 -9 4 -5 7 4 12 3 12 -3 0 -5 -4 -13 -10 -16 -14 -9 -12 -25 3 -25 15 0 21 46 8 55 -5 3 -13 0 -17 -6z"/> <path d="M2787 423 c-4 -3 -7 -17 -7 -30 0 -24 25 -32 33 -10 4 10 6 10 6 0 1 -7 7 -13 15 -13 8 0 17 6 19 13 4 10 6 10 6 0 2 -25 31 -13 31 11 0 27 -15 42 -25 26 -5 -8 -11 -8 -20 0 -10 8 -15 8 -20 0 -5 -8 -11 -8 -19 -1 -7 6 -16 8 -19 4z m10 -35 c-3 -7 -5 -2 -5 12 0 14 2 19 5 13 2 -7 2 -19 0 -25z m40 0 c-3 -7 -5 -2 -5 12 0 14 2 19 5 13 2 -7 2 -19 0 -25z m40 0 c-3 -8 -6 -5 -6 6 -1 11 2 17 5 13 3 -3 4 -12 1 -19z"/> <path d="M113 393 c9 -2 25 -2 35 0 9 3 1 5 -18 5 -19 0 -27 -2 -17 -5z"/> <path d="M183 393 c9 -2 25 -2 35 0 9 3 1 5 -18 5 -19 0 -27 -2 -17 -5z"/> <path d="M253 393 c9 -2 25 -2 35 0 9 3 1 5 -18 5 -19 0 -27 -2 -17 -5z"/> <path d="M698 393 c7 -3 16 -2 19 1 4 3 -2 6 -13 5 -11 0 -14 -3 -6 -6z"/> <path d="M768 393 c7 -3 16 -2 19 1 4 3 -2 6 -13 5 -11 0 -14 -3 -6 -6z"/> <path d="M838 393 c7 -3 16 -2 19 1 4 3 -2 6 -13 5 -11 0 -14 -3 -6 -6z"/> <path d="M908 393 c7 -3 16 -2 19 1 4 3 -2 6 -13 5 -11 0 -14 -3 -6 -6z"/> <path d="M978 393 c7 -3 16 -2 19 1 4 3 -2 6 -13 5 -11 0 -14 -3 -6 -6z"/> <path d="M1048 393 c7 -3 16 -2 19 1 4 3 -2 6 -13 5 -11 0 -14 -3 -6 -6z"/> <path d="M1118 393 c7 -3 16 -2 19 1 4 3 -2 6 -13 5 -11 0 -14 -3 -6 -6z"/> <path d="M1188 393 c7 -3 16 -2 19 1 4 3 -2 6 -13 5 -11 0 -14 -3 -6 -6z"/> <path d="M1258 393 c7 -3 16 -2 19 1 4 3 -2 6 -13 5 -11 0 -14 -3 -6 -6z"/> <path d="M1328 393 c7 -3 16 -2 19 1 4 3 -2 6 -13 5 -11 0 -14 -3 -6 -6z"/> <path d="M1398 393 c7 -3 16 -2 19 1 4 3 -2 6 -13 5 -11 0 -14 -3 -6 -6z"/> <path d="M1473 393 c9 -2 25 -2 35 0 9 3 1 5 -18 5 -19 0 -27 -2 -17 -5z"/> <path d="M1543 393 c9 -2 25 -2 35 0 9 3 1 5 -18 5 -19 0 -27 -2 -17 -5z"/> <path d="M1613 393 c9 -2 25 -2 35 0 9 3 1 5 -18 5 -19 0 -27 -2 -17 -5z"/> <path d="M1683 393 c9 -2 25 -2 35 0 9 3 1 5 -18 5 -19 0 -27 -2 -17 -5z"/> <path d="M1753 393 c9 -2 25 -2 35 0 9 3 1 5 -18 5 -19 0 -27 -2 -17 -5z"/> <path d="M1823 393 c9 -2 25 -2 35 0 9 3 1 5 -18 5 -19 0 -27 -2 -17 -5z"/> <path d="M1893 393 c9 -2 25 -2 35 0 9 3 1 5 -18 5 -19 0 -27 -2 -17 -5z"/> <path d="M1988 393 c7 -3 16 -2 19 1 4 3 -2 6 -13 5 -11 0 -14 -3 -6 -6z"/> <path d="M2058 393 c7 -3 16 -2 19 1 4 3 -2 6 -13 5 -11 0 -14 -3 -6 -6z"/> <path d="M2128 393 c7 -3 16 -2 19 1 4 3 -2 6 -13 5 -11 0 -14 -3 -6 -6z"/> <path d="M2198 393 c7 -3 16 -2 19 1 4 3 -2 6 -13 5 -11 0 -14 -3 -6 -6z"/> <path d="M2268 393 c7 -3 16 -2 19 1 4 3 -2 6 -13 5 -11 0 -14 -3 -6 -6z"/> <path d="M2338 393 c7 -3 16 -2 19 1 4 3 -2 6 -13 5 -11 0 -14 -3 -6 -6z"/> <path d="M2408 393 c7 -3 16 -2 19 1 4 3 -2 6 -13 5 -11 0 -14 -3 -6 -6z"/> <path d="M2478 393 c7 -3 16 -2 19 1 4 3 -2 6 -13 5 -11 0 -14 -3 -6 -6z"/> <path d="M2548 393 c7 -3 16 -2 19 1 4 3 -2 6 -13 5 -11 0 -14 -3 -6 -6z"/> <path d="M2618 393 c7 -3 16 -2 19 1 4 3 -2 6 -13 5 -11 0 -14 -3 -6 -6z"/> <path d="M2787 303 c-4 -3 -7 -17 -7 -30 0 -24 25 -32 33 -10 4 10 6 10 6 0 1 -7 7 -13 15 -13 8 0 17 6 19 13 4 10 6 10 6 0 2 -25 31 -13 31 11 0 27 -15 42 -25 26 -5 -8 -11 -8 -20 0 -10 8 -15 8 -20 0 -5 -8 -11 -8 -19 -1 -7 6 -16 8 -19 4z m10 -35 c-3 -7 -5 -2 -5 12 0 14 2 19 5 13 2 -7 2 -19 0 -25z m40 0 c-3 -7 -5 -2 -5 12 0 14 2 19 5 13 2 -7 2 -19 0 -25z m40 0 c-3 -8 -6 -5 -6 6 -1 11 2 17 5 13 3 -3 4 -12 1 -19z"/> <path d="M2748 294 c-8 -8 3 -44 13 -44 5 0 9 11 9 25 0 24 -10 32 -22 19z"/> <path d="M253 273 c9 -2 25 -2 35 0 9 3 1 5 -18 5 -19 0 -27 -2 -17 -5z"/> <path d="M323 273 c9 -2 25 -2 35 0 9 3 1 5 -18 5 -19 0 -27 -2 -17 -5z"/> <path d="M393 273 c9 -2 25 -2 35 0 9 3 1 5 -18 5 -19 0 -27 -2 -17 -5z"/> <path d="M463 273 c9 -2 25 -2 35 0 9 3 1 5 -18 5 -19 0 -27 -2 -17 -5z"/> <path d="M558 273 c7 -3 16 -2 19 1 4 3 -2 6 -13 5 -11 0 -14 -3 -6 -6z"/> <path d="M628 273 c7 -3 16 -2 19 1 4 3 -2 6 -13 5 -11 0 -14 -3 -6 -6z"/> <path d="M698 273 c7 -3 16 -2 19 1 4 3 -2 6 -13 5 -11 0 -14 -3 -6 -6z"/> <path d="M768 273 c7 -3 16 -2 19 1 4 3 -2 6 -13 5 -11 0 -14 -3 -6 -6z"/> <path d="M838 273 c7 -3 16 -2 19 1 4 3 -2 6 -13 5 -11 0 -14 -3 -6 -6z"/> <path d="M908 273 c7 -3 16 -2 19 1 4 3 -2 6 -13 5 -11 0 -14 -3 -6 -6z"/> <path d="M978 273 c7 -3 16 -2 19 1 4 3 -2 6 -13 5 -11 0 -14 -3 -6 -6z"/> <path d="M1048 273 c7 -3 16 -2 19 1 4 3 -2 6 -13 5 -11 0 -14 -3 -6 -6z"/> <path d="M1118 273 c7 -3 16 -2 19 1 4 3 -2 6 -13 5 -11 0 -14 -3 -6 -6z"/> <path d="M1188 273 c7 -3 16 -2 19 1 4 3 -2 6 -13 5 -11 0 -14 -3 -6 -6z"/> <path d="M1258 273 c7 -3 16 -2 19 1 4 3 -2 6 -13 5 -11 0 -14 -3 -6 -6z"/> <path d="M1328 273 c7 -3 16 -2 19 1 4 3 -2 6 -13 5 -11 0 -14 -3 -6 -6z"/> <path d="M1403 273 c9 -2 25 -2 35 0 9 3 1 5 -18 5 -19 0 -27 -2 -17 -5z"/> <path d="M1468 273 c7 -3 16 -2 19 1 4 3 -2 6 -13 5 -11 0 -14 -3 -6 -6z"/> <path d="M1538 273 c7 -3 16 -2 19 1 4 3 -2 6 -13 5 -11 0 -14 -3 -6 -6z"/> <path d="M1613 273 c9 -2 25 -2 35 0 9 3 1 5 -18 5 -19 0 -27 -2 -17 -5z"/> <path d="M1683 273 c9 -2 25 -2 35 0 9 3 1 5 -18 5 -19 0 -27 -2 -17 -5z"/> <path d="M1753 273 c9 -2 25 -2 35 0 9 3 1 5 -18 5 -19 0 -27 -2 -17 -5z"/> <path d="M1823 273 c9 -2 25 -2 35 0 9 3 1 5 -18 5 -19 0 -27 -2 -17 -5z"/> <path d="M1893 273 c9 -2 25 -2 35 0 9 3 1 5 -18 5 -19 0 -27 -2 -17 -5z"/> <path d="M1963 273 c9 -2 25 -2 35 0 9 3 1 5 -18 5 -19 0 -27 -2 -17 -5z"/> <path d="M2058 273 c7 -3 16 -2 19 1 4 3 -2 6 -13 5 -11 0 -14 -3 -6 -6z"/> <path d="M2128 273 c7 -3 16 -2 19 1 4 3 -2 6 -13 5 -11 0 -14 -3 -6 -6z"/> <path d="M2198 273 c7 -3 16 -2 19 1 4 3 -2 6 -13 5 -11 0 -14 -3 -6 -6z"/> <path d="M2268 273 c7 -3 16 -2 19 1 4 3 -2 6 -13 5 -11 0 -14 -3 -6 -6z"/> <path d="M2338 273 c7 -3 16 -2 19 1 4 3 -2 6 -13 5 -11 0 -14 -3 -6 -6z"/> <path d="M2408 273 c7 -3 16 -2 19 1 4 3 -2 6 -13 5 -11 0 -14 -3 -6 -6z"/> <path d="M2478 273 c7 -3 16 -2 19 1 4 3 -2 6 -13 5 -11 0 -14 -3 -6 -6z"/> <path d="M2548 273 c7 -3 16 -2 19 1 4 3 -2 6 -13 5 -11 0 -14 -3 -6 -6z"/> <path d="M2618 273 c7 -3 16 -2 19 1 4 3 -2 6 -13 5 -11 0 -14 -3 -6 -6z"/> <path d="M2854 165 c-7 -18 3 -35 22 -35 8 0 14 10 14 25 0 27 -27 35 -36 10z m23 -17 c-3 -8 -6 -5 -6 6 -1 11 2 17 5 13 3 -3 4 -12 1 -19z"/> <path d="M150 105 c-10 -12 -9 -16 5 -21 10 -4 13 -9 6 -13 -6 -4 14 -7 44 -8 51 -1 54 1 53 22 -2 19 -8 23 -35 23 -22 0 -33 -5 -33 -14 0 -8 5 -14 11 -14 5 0 8 4 5 9 -3 4 6 6 19 3 36 -6 31 -20 -6 -18 -23 1 -34 8 -40 24 -10 26 -13 27 -29 7z"/> <path d="M553 104 c-4 -11 -2 -19 6 -22 11 -4 11 -6 0 -13 -11 -7 -10 -9 4 -9 9 0 17 7 17 15 0 9 6 12 16 8 13 -5 13 -7 2 -14 -10 -7 -9 -9 4 -9 9 0 19 6 21 13 4 10 6 10 6 0 2 -25 31 -13 31 11 0 30 -18 44 -26 21 -6 -14 -8 -14 -19 1 -9 13 -14 14 -19 5 -6 -9 -11 -9 -22 0 -11 9 -15 7 -21 -7z m94 -26 c-3 -8 -6 -5 -6 6 -1 11 2 17 5 13 3 -3 4 -12 1 -19z"/> <path d="M1326 113 c-11 -11 -6 -24 7 -17 10 6 10 4 0 -7 -17 -17 -16 -29 0 -29 7 0 14 11 15 25 2 24 -10 40 -22 28z"/> <path d="M1367 114 c-4 -4 -7 -18 -7 -31 0 -24 25 -32 33 -10 4 10 6 10 6 0 1 -20 21 -15 42 10 16 19 18 20 19 4 0 -10 -4 -15 -10 -12 -5 3 -10 1 -10 -4 0 -6 7 -11 15 -11 9 0 15 9 15 24 0 27 -15 42 -25 26 -5 -8 -11 -7 -21 1 -11 9 -15 8 -20 -5 -6 -15 -7 -15 -18 -1 -6 9 -15 13 -19 9z m10 -36 c-3 -8 -6 -5 -6 6 -1 11 2 17 5 13 3 -3 4 -12 1 -19z m40 0 c-3 -8 -6 -5 -6 6 -1 11 2 17 5 13 3 -3 4 -12 1 -19z"/> <path d="M1727 113 c-12 -11 -7 -21 9 -19 9 0 19 -5 22 -13 3 -9 -1 -11 -17 -6 -12 4 -21 2 -21 -4 0 -7 22 -10 55 -10 33 1 55 6 55 13 0 6 4 5 9 -3 5 -8 16 -11 26 -8 9 4 13 12 9 18 -4 8 -9 7 -15 -2 -5 -8 -9 -9 -9 -4 0 6 5 16 12 23 9 9 8 12 -5 12 -9 0 -17 -5 -17 -12 0 -6 -6 -4 -13 7 -10 13 -16 15 -21 6 -6 -9 -11 -9 -21 -1 -10 8 -15 8 -20 0 -5 -8 -11 -8 -19 -1 -7 6 -16 8 -19 4z m63 -22 c0 -6 -4 -13 -10 -16 -5 -3 -10 1 -10 9 0 9 5 16 10 16 6 0 10 -4 10 -9z m27 -13 c-3 -8 -6 -5 -6 6 -1 11 2 17 5 13 3 -3 4 -12 1 -19z"/> <path d="M2133 113 c-19 -7 -16 -21 3 -19 9 0 19 -5 21 -11 3 -7 0 -13 -7 -13 -6 0 -8 5 -4 13 5 8 2 8 -9 -2 -24 -19 -22 -22 21 -18 30 2 38 7 40 25 3 18 -1 23 -15 21 -10 -2 -22 -1 -28 2 -5 4 -16 4 -22 2z m57 -28 c0 -8 -4 -15 -10 -15 -5 0 -10 7 -10 15 0 8 5 15 10 15 6 0 10 -7 10 -15z"/> <path d="M2247 114 c-4 -4 -7 -18 -7 -31 0 -26 27 -32 37 -7 6 17 -19 49 -30 38z m23 -29 c0 -8 -4 -15 -10 -15 -5 0 -10 7 -10 15 0 8 5 15 10 15 6 0 10 -7 10 -15z"/> <path d="M2536 113 c-11 -11 -6 -24 7 -17 6 4 3 -2 -7 -14 -19 -22 -19 -22 0 -22 14 0 20 8 22 25 2 24 -10 40 -22 28z"/> <path d="M2576 113 c-12 -13 -6 -53 9 -53 9 0 15 9 15 24 0 26 -12 40 -24 29z m11 -35 c-3 -8 -6 -5 -6 6 -1 11 2 17 5 13 3 -3 4 -12 1 -19z"/> <path d="M117 103 c-3 -5 -1 -17 4 -28 7 -17 8 -17 8 8 1 27 -4 34 -12 20z"/> <path d="M518 104 c-8 -8 3 -44 13 -44 5 0 9 11 9 25 0 24 -10 32 -22 19z"/> <path d="M927 103 c-3 -5 -1 -17 4 -28 7 -17 8 -17 8 8 1 27 -4 34 -12 20z"/> <path d="M954 99 c-3 -5 2 -12 11 -15 13 -6 14 -8 3 -15 -9 -6 -9 -9 -1 -9 7 0 17 9 23 20 6 11 16 20 23 20 7 0 6 -4 -3 -10 -13 -9 -13 -10 0 -10 13 0 13 -2 1 -9 -10 -7 -4 -9 20 -8 27 2 34 6 35 23 1 19 -4 22 -53 22 -29 0 -56 -4 -59 -9z m106 -19 c0 -5 -4 -10 -9 -10 -6 0 -13 5 -16 10 -3 6 1 10 9 10 9 0 16 -4 16 -10z"/> <path d="M2211 103 c0 -5 4 -17 9 -28 8 -18 9 -17 9 8 1 15 -3 27 -9 27 -5 0 -10 -3 -9 -7z"/> <path d="M2617 103 c-3 -5 -1 -17 4 -28 7 -17 8 -17 8 8 1 27 -4 34 -12 20z"/> <path d="M2650 100 c0 -5 5 -10 10 -10 6 0 10 -5 10 -11 0 -6 -7 -8 -16 -5 -8 3 -12 2 -9 -4 13 -20 35 -10 33 15 -2 23 -28 37 -28 15z"/> </g> </svg> 