 <svg  version="1.0" xmlns="http://www.w3.org/2000/svg"  width="300.000000pt" height="149.000000pt" viewBox="0 0 300.000000 149.000000"  preserveAspectRatio="xMidYMid meet">  <g transform="translate(0.000000,149.000000) scale(0.100000,-0.100000)" fill="#4f0797" stroke="none"> <path d="M2931 1478 c0 -9 -4 -23 -7 -32 -5 -12 0 -16 20 -16 14 0 26 5 26 10 0 6 -6 10 -14 10 -8 0 -17 10 -19 23 -2 13 -5 15 -6 5z"/> <path d="M2860 1371 c0 -69 1 -71 25 -71 23 0 24 2 22 68 -2 61 -4 67 -24 70 -22 3 -23 0 -23 -67z"/> <path d="M2800 1220 c0 -44 4 -80 9 -80 5 0 12 -10 14 -22 l4 -23 2 23 c0 13 6 20 11 17 6 -4 10 25 10 79 0 85 0 86 -25 86 -25 0 -25 -1 -25 -80z"/> <path d="M2761 1178 c0 -16 -5 -28 -11 -28 -5 0 -10 -20 -10 -45 0 -41 2 -45 25 -45 23 0 25 4 25 45 0 25 -4 45 -9 45 -5 0 -12 12 -14 28 l-4 27 -2 -27z"/> <path d="M2510 1130 c0 -5 9 -10 20 -10 11 0 20 5 20 10 0 6 -9 10 -20 10 -11 0 -20 -4 -20 -10z"/> <path d="M2570 1114 c0 -21 4 -25 23 -22 14 2 23 11 25 26 3 18 -1 22 -22 22 -21 0 -26 -5 -26 -26z"/> <path d="M2637 1109 c-4 -20 -3 -47 2 -60 7 -17 10 -19 10 -6 1 9 6 17 11 17 6 0 10 9 10 21 0 11 -4 18 -9 14 -5 -3 -11 7 -13 22 -3 26 -4 26 -11 -8z"/> <path d="M2450 1040 c0 -50 4 -90 9 -90 6 0 12 -19 14 -42 l4 -43 1 43 c1 23 7 42 12 42 6 0 10 37 10 90 0 89 0 90 -25 90 -25 0 -25 -1 -25 -90z"/> <path d="M2700 1095 c-3 -16 -2 -52 1 -80 l6 -50 1 48 c1 30 6 47 15 47 9 0 9 2 1 8 -7 4 -14 18 -16 32 -4 24 -4 23 -8 -5z"/> <path d="M2520 1091 c0 -11 5 -23 10 -26 6 -3 10 3 10 14 0 11 -4 23 -10 26 -5 3 -10 -3 -10 -14z"/> <path d="M2413 1005 c0 -22 2 -30 4 -17 2 12 2 30 0 40 -3 9 -5 -1 -4 -23z"/> <path d="M2399 958 c0 -2 -1 -42 -2 -91 -2 -84 -1 -87 21 -87 21 0 22 4 22 84 0 67 -3 85 -16 90 -17 6 -24 7 -25 4z"/> <path d="M2330 713 c0 -118 10 -173 31 -173 18 0 19 10 19 120 l0 120 -25 0 c-24 0 -25 -2 -25 -67z"/> <path d="M2170 674 c0 -21 4 -33 10 -29 6 3 10 19 10 36 0 16 -4 29 -10 29 -5 0 -10 -16 -10 -36z"/> <path d="M2289 630 c-3 -41 -2 -86 2 -100 7 -24 7 -24 8 -2 1 12 6 22 11 22 6 0 10 7 10 15 0 8 -4 15 -10 15 -5 0 -10 28 -12 63 l-3 62 -6 -75z"/> <path d="M1942 610 c0 -19 2 -27 5 -17 2 9 2 25 0 35 -3 9 -5 1 -5 -18z"/> <path d="M2230 583 c0 -25 2 -44 5 -41 9 9 13 88 4 88 -5 0 -9 -21 -9 -47z"/> <path d="M2160 605 c0 -9 9 -15 25 -15 16 0 25 6 25 15 0 9 -9 15 -25 15 -16 0 -25 -6 -25 -15z"/> <path d="M2100 510 l0 -100 26 0 26 0 -4 100 c-3 96 -4 100 -25 100 -22 0 -23 -3 -23 -100z"/> <path d="M1362 563 c-1 -24 -6 -43 -12 -43 -6 0 -10 -40 -10 -101 0 -98 0 -100 23 -97 21 3 22 8 25 101 2 58 -1 97 -7 97 -5 0 -12 19 -14 43 l-4 42 -1 -42z"/> <path d="M2001 588 c0 -10 -4 -18 -8 -18 -10 0 -9 -110 2 -133 7 -17 8 -17 21 0 15 20 19 133 5 133 -5 0 -12 8 -14 18 -4 16 -5 16 -6 0z"/> <path d="M1301 558 c-1 -9 -7 -19 -13 -21 -10 -4 -10 -8 -1 -14 6 -4 13 -22 16 -38 l4 -30 2 32 c0 17 7 34 14 36 8 4 9 8 1 14 -6 4 -14 15 -17 23 -4 12 -6 12 -6 -2z"/> <path d="M1926 555 c4 -8 15 -15 25 -15 10 0 19 7 19 15 0 9 -9 15 -25 15 -18 0 -23 -4 -19 -15z"/> <path d="M1876 528 c-9 -43 -3 -58 22 -51 14 3 18 11 14 29 -2 13 -8 24 -12 24 -5 0 -10 8 -13 18 -2 10 -7 2 -11 -20z"/> <path d="M1220 480 c0 -70 0 -70 28 -70 l27 0 -3 70 c-3 66 -5 70 -28 70 -23 0 -24 -3 -24 -70z"/> <path d="M2353 495 c0 -22 2 -30 4 -17 2 12 2 30 0 40 -3 9 -5 -1 -4 -23z"/> <path d="M1058 384 c-3 -90 1 -112 20 -101 10 7 3 197 -8 197 -5 0 -10 -43 -12 -96z"/> <path d="M1810 380 c0 -100 0 -100 25 -100 25 0 25 0 25 100 0 100 0 100 -25 100 -25 0 -25 0 -25 -100z"/> <path d="M1183 420 c0 -25 2 -35 4 -22 2 12 2 32 0 45 -2 12 -4 2 -4 -23z"/> <path d="M1527 416 c-13 -87 -10 -116 13 -116 17 0 20 7 20 50 0 28 -4 50 -9 50 -6 0 -11 15 -13 33 -3 28 -4 26 -11 -17z"/> <path d="M2047 444 c-16 -16 -6 -34 19 -34 19 0 25 5 22 17 -3 19 -29 29 -41 17z"/> <path d="M700 355 c0 -57 2 -65 19 -65 17 0 20 9 23 65 3 62 2 65 -19 65 -22 0 -23 -4 -23 -65z"/> <path d="M760 346 c0 -69 2 -76 20 -76 18 0 20 7 20 65 0 36 1 68 3 73 1 4 -8 8 -20 10 -22 3 -23 0 -23 -72z"/> <path d="M1111 363 c1 -61 16 -131 18 -85 1 12 7 22 16 22 12 0 15 13 15 60 0 57 -1 60 -25 60 -24 0 -25 -3 -24 -57z"/> <path d="M1460 330 c0 -67 1 -70 24 -70 22 0 23 3 22 70 -1 65 -2 70 -23 70 -22 0 -23 -4 -23 -70z"/> <path d="M661 333 c0 -12 -7 -24 -13 -26 -10 -4 -10 -8 -2 -14 7 -4 14 -17 17 -28 4 -18 5 -18 6 3 0 12 6 22 12 22 8 0 8 4 1 13 -5 6 -12 21 -15 32 -4 19 -5 19 -6 -2z"/> <path d="M1413 331 c-15 -24 -17 -61 -3 -61 5 0 7 -20 3 -49 -3 -31 -1 -51 6 -55 8 -5 11 10 11 48 0 30 4 56 9 58 4 2 3 20 -3 41 -10 36 -12 37 -23 18z"/> <path d="M602 300 c0 -19 2 -27 5 -17 2 9 2 25 0 35 -3 9 -5 1 -5 -18z"/> <path d="M1011 318 c0 -10 -5 -18 -11 -18 -5 0 -10 -7 -10 -15 0 -8 4 -15 9 -15 5 0 12 -8 14 -17 4 -17 5 -17 6 0 0 9 6 17 11 17 6 0 10 7 10 15 0 8 -4 15 -9 15 -5 0 -12 8 -14 18 -4 16 -5 16 -6 0z"/> <path d="M827 281 c-9 -41 -9 -95 -1 -104 3 -3 12 -3 20 0 16 6 20 93 5 93 -5 0 -11 10 -13 23 -3 18 -5 16 -11 -12z"/> <path d="M1570 260 c0 -36 3 -40 25 -40 23 0 25 4 25 40 0 36 -2 40 -25 40 -22 0 -25 -4 -25 -40z"/> <path d="M525 230 c0 -56 1 -60 22 -60 21 0 23 4 23 60 0 56 -2 60 -23 60 -21 0 -22 -4 -22 -60z"/> <path d="M951 278 c0 -9 -5 -18 -11 -20 -17 -6 1 -48 21 -48 14 0 19 7 19 25 0 14 -4 25 -9 25 -5 0 -12 8 -14 18 -4 15 -5 15 -6 0z"/> <path d="M1760 265 c9 -11 10 -34 5 -80 -4 -44 -3 -65 4 -65 7 0 11 28 11 74 0 50 4 76 13 79 6 3 -1 6 -17 6 -24 1 -27 -1 -16 -14z"/> <path d="M1690 225 c0 -41 2 -45 25 -45 23 0 25 4 25 45 0 41 -2 45 -25 45 -23 0 -25 -4 -25 -45z"/> <path d="M1820 251 c0 -12 5 -21 10 -21 6 0 10 6 10 14 0 8 -4 18 -10 21 -5 3 -10 -3 -10 -14z"/> <path d="M1651 243 c0 -13 -5 -23 -11 -23 -5 0 -10 -9 -10 -20 0 -11 4 -20 9 -20 5 0 12 -10 14 -22 l4 -23 2 23 c0 12 6 22 11 22 6 0 10 9 10 20 0 11 -4 20 -9 20 -5 0 -12 10 -14 23 l-4 22 -2 -22z"/> <path d="M878 195 c-3 -14 -2 -25 1 -26 3 0 14 -2 24 -4 13 -2 17 4 17 26 0 38 -35 42 -42 4z"/> <path d="M66 192 c-3 -3 -6 -27 -6 -54 0 -41 3 -48 19 -48 16 0 20 9 23 49 2 40 0 51 -14 54 -9 3 -19 2 -22 -1z"/> <path d="M7 183 c-14 -13 -6 -23 18 -23 28 0 34 15 9 24 -19 7 -19 7 -27 -1z"/> <path d="M477 172 c-2 -4 -1 -18 4 -32 6 -23 7 -23 8 -3 1 12 6 23 13 25 8 3 6 7 -5 11 -9 3 -18 3 -20 -1z"/> <path d="M410 106 c0 -52 2 -56 23 -56 21 0 22 4 21 53 -2 44 -5 52 -23 55 -19 3 -21 -1 -21 -52z"/> <path d="M362 100 c2 -22 -1 -40 -5 -40 -5 0 -4 -7 3 -15 8 -9 16 -12 19 -6 10 15 0 101 -11 101 -6 0 -8 -17 -6 -40z"/> <path d="M128 107 c-3 -7 -1 -23 3 -37 6 -23 7 -23 8 -3 1 12 5 23 10 25 5 2 3 8 -4 15 -10 9 -14 9 -17 0z"/> <path d="M191 108 c0 -10 -5 -18 -11 -18 -5 0 -10 -7 -10 -15 0 -8 5 -15 10 -15 6 0 11 -10 11 -22 l2 -23 4 23 c2 12 9 22 14 22 5 0 9 7 9 15 0 8 -4 15 -9 15 -5 0 -12 8 -14 18 -4 16 -5 16 -6 0z"/> <path d="M306 53 c-9 -38 -2 -55 19 -46 16 6 21 43 6 43 -5 0 -11 8 -13 18 -3 11 -7 6 -12 -15z"/> <path d="M238 65 c-13 -13 5 -55 23 -55 14 0 19 7 19 30 0 22 -5 30 -18 30 -10 0 -21 -2 -24 -5z"/> </g> </svg> 