 <svg  version="1.0" xmlns="http://www.w3.org/2000/svg"  width="300.000000pt" height="300.000000pt" viewBox="0 0 300.000000 300.000000"  preserveAspectRatio="xMidYMid meet">  <g transform="translate(0.000000,300.000000) scale(0.100000,-0.100000)" fill="#560d7d" stroke="none"> <path d="M1323 2515 c-368 -67 -683 -335 -802 -684 -26 -77 -48 -180 -51 -241 -4 -63 -2 -70 15 -70 8 0 15 -9 15 -20 0 -11 7 -23 15 -26 8 -4 15 -10 15 -15 0 -4 -7 -6 -15 -3 -9 4 -15 0 -15 -10 0 -10 -5 -13 -17 -9 -14 6 -16 -2 -10 -69 16 -221 133 -455 315 -630 135 -130 276 -209 462 -259 73 -20 109 -23 255 -23 144 0 182 3 252 22 187 51 331 132 470 265 186 178 289 394 313 657 14 144 18 160 41 160 18 0 19 8 19 106 0 101 -1 105 -20 99 -13 -4 -20 -2 -20 7 0 9 -3 9 -8 2 -4 -6 -14 -13 -22 -16 -16 -6 -16 -6 33 -22 9 -3 17 -14 17 -24 0 -15 -6 -18 -27 -15 -24 3 -25 2 -8 -6 17 -8 18 -10 3 -10 -10 -1 -18 -5 -18 -11 0 -5 10 -9 21 -7 18 2 22 -4 26 -39 3 -31 0 -43 -12 -47 -8 -4 -16 -17 -16 -29 -1 -17 -2 -18 -6 -5 -2 9 -11 17 -19 17 -11 0 -14 21 -14 108 -1 97 -4 115 -34 194 -108 285 -348 515 -641 615 -151 51 -355 67 -512 38z m195 -62 l2 47 52 0 c62 0 179 -19 193 -31 5 -5 19 -9 31 -9 13 0 26 -5 29 -11 4 -6 13 -8 21 -5 9 3 14 -2 14 -14 0 -11 5 -20 11 -20 5 0 7 5 4 10 -8 13 18 13 31 1 5 -5 20 -11 34 -13 14 -2 24 -9 22 -16 -1 -6 6 -12 17 -12 25 0 143 -79 135 -91 -3 -5 -2 -9 3 -8 24 4 43 -3 43 -16 0 -9 11 -20 25 -25 14 -5 25 -16 25 -25 0 -8 5 -15 11 -15 16 0 41 -29 34 -40 -3 -5 3 -10 14 -10 12 0 21 -7 21 -15 0 -8 4 -15 9 -15 12 0 63 -79 56 -89 -2 -5 4 -11 15 -14 11 -3 20 -9 18 -14 -2 -8 42 -103 52 -113 12 -12 40 -111 35 -120 -3 -6 -1 -10 4 -10 6 0 11 -5 11 -11 0 -7 -10 -9 -27 -5 l-28 6 23 -19 c28 -24 29 -51 2 -51 -11 0 -20 -7 -20 -15 0 -8 -5 -15 -11 -15 -6 0 -9 7 -5 15 4 11 -1 15 -19 15 -18 0 -25 5 -25 20 0 15 7 20 28 20 15 0 34 -6 42 -12 7 -7 5 -1 -6 14 -10 15 -25 25 -32 23 -8 -3 -20 -5 -28 -5 -25 0 -16 -51 14 -78 24 -23 62 -37 60 -23 -2 20 4 31 16 31 8 0 13 -8 11 -17 -1 -10 2 -24 8 -30 7 -10 2 -13 -19 -14 -24 -1 -25 -2 -6 -6 13 -3 22 -12 22 -22 0 -10 3 -21 7 -25 4 -3 12 -22 19 -41 10 -29 9 -35 -3 -35 -9 0 -11 -5 -6 -12 9 -15 12 -118 4 -118 -3 0 -7 -21 -9 -48 -1 -26 -7 -48 -12 -50 -5 -2 -6 -10 -3 -18 3 -9 -1 -14 -13 -14 -11 0 -15 -3 -9 -8 9 -6 11 -18 6 -37 0 -3 -1 -8 -2 -12 -1 -5 -6 -17 -12 -28 -6 -11 -10 -26 -9 -32 2 -7 -4 -13 -11 -13 -8 0 -14 -6 -13 -12 0 -7 -10 -37 -24 -65 -24 -50 -27 -53 -65 -55 -37 -1 -37 -2 -7 -5 17 -2 32 -6 32 -9 0 -14 -55 -84 -66 -84 -8 0 -11 -6 -8 -15 5 -12 -3 -15 -35 -15 -33 0 -41 -4 -40 -17 0 -11 3 -13 6 -5 2 6 14 12 25 12 19 0 19 -1 5 -22 -8 -13 -20 -22 -26 -20 -6 1 -11 -3 -11 -9 0 -20 -64 -71 -88 -71 -14 -1 -19 -4 -13 -7 8 -5 6 -12 -6 -23 -32 -28 -97 -65 -127 -72 -23 -6 -27 -9 -15 -17 9 -6 -5 -9 -43 -9 -52 0 -58 -2 -58 -21 0 -12 -4 -18 -11 -13 -6 3 -14 1 -18 -5 -4 -6 -22 -13 -39 -14 -18 -1 -32 -5 -32 -8 0 -6 -49 -16 -120 -25 -19 -2 -55 -6 -78 -9 l-44 -6 4 51 c1 27 0 50 -4 50 -5 0 -9 -26 -10 -57 l-2 -58 -3 58 c-2 31 -7 57 -11 57 -4 0 -5 -23 -3 -51 l3 -50 -58 5 c-104 11 -144 18 -150 27 -3 5 -9 7 -13 5 -10 -6 -121 27 -147 43 -18 12 -18 12 4 8 12 -3 22 -1 22 4 0 5 -25 9 -56 9 -31 0 -53 4 -49 9 3 5 -5 13 -17 17 -13 4 -34 14 -48 24 -14 9 -42 28 -62 41 -24 16 -33 26 -25 31 8 5 4 8 -9 8 -12 0 -47 24 -80 55 -48 45 -56 57 -44 65 12 8 9 10 -12 10 -18 0 -28 5 -28 15 0 8 -4 15 -8 15 -5 0 -22 20 -39 44 l-32 45 47 4 47 3 -53 2 c-29 1 -51 6 -48 11 3 5 0 14 -8 20 -7 6 -21 30 -32 53 -10 24 -21 45 -24 48 -3 3 -10 21 -17 40 -25 77 -25 78 -1 83 21 4 21 4 -4 6 -23 1 -27 7 -34 44 -5 23 -8 52 -8 65 0 12 -3 22 -6 22 -3 0 -6 15 -6 33 0 27 6 37 28 50 15 9 28 12 28 7 0 -5 -9 -14 -21 -21 -17 -9 -20 -17 -15 -41 3 -17 13 -36 21 -42 9 -6 17 -28 18 -48 4 -44 10 -53 32 -45 13 6 19 31 18 75 -1 11 8 15 24 10 4 -2 8 -16 8 -33 1 -22 8 -34 33 -48 28 -16 41 -17 71 -4 13 6 61 60 61 68 0 6 -4 8 -9 4 -5 -3 -12 -1 -16 5 -4 6 5 10 19 10 14 0 26 5 26 10 0 6 -9 10 -20 10 -11 0 -20 4 -20 9 0 13 39 18 72 10 15 -4 30 -4 33 1 7 11 -55 30 -70 22 -20 -12 -51 -9 -83 6 -25 11 -39 12 -56 4 -20 -9 -27 -6 -50 20 -15 17 -25 36 -23 43 3 7 -9 12 -32 14 -34 2 -72 21 -42 21 8 0 4 7 -9 18 -15 12 -22 31 -24 65 -2 26 -1 47 3 47 3 0 6 15 7 33 0 18 4 42 9 53 4 10 9 26 11 34 9 49 16 75 27 94 6 12 10 27 9 34 -2 6 1 12 6 12 4 0 14 16 21 36 7 20 22 45 32 55 10 10 14 19 8 19 -5 0 -7 5 -4 10 3 6 36 11 73 12 l67 2 -58 3 c-32 2 -57 7 -55 11 14 30 52 82 59 82 5 0 8 3 7 8 -4 11 68 82 76 75 3 -4 6 -1 6 6 0 17 55 71 73 71 8 0 17 7 21 15 6 15 110 86 123 84 20 -3 33 2 31 14 -2 8 14 13 50 15 28 2 52 7 52 12 0 4 -10 6 -22 4 -21 -4 -21 -4 2 7 14 7 31 11 38 10 6 -1 12 2 12 7 0 5 26 15 58 22 31 7 71 16 87 20 17 4 60 8 98 9 l67 2 0 -40 c0 -33 -4 -40 -22 -44 -20 -4 -19 -4 5 -6 26 -1 27 0 29 57 l1 57 7 -60 c7 -60 7 -60 8 -12z m-933 -1002 c-4 -13 1 -24 13 -33 10 -7 21 -25 24 -40 4 -23 2 -28 -16 -28 -19 0 -21 -5 -18 -50 3 -32 0 -50 -7 -50 -7 0 -11 20 -11 50 0 43 -3 50 -20 50 -16 0 -20 7 -20 31 0 29 2 31 30 27 17 -3 30 -1 30 4 0 4 -4 8 -10 8 -5 0 -10 11 -10 25 0 14 5 25 11 25 6 0 8 -8 4 -19z m125 -61 c0 -5 10 -10 21 -10 18 0 21 -5 17 -31 -3 -20 0 -33 9 -36 7 -3 13 -9 13 -14 0 -4 -7 -6 -15 -3 -11 5 -13 2 -9 -10 4 -12 0 -16 -15 -16 -12 0 -21 -6 -21 -15 0 -8 -4 -15 -10 -15 -5 0 -10 7 -10 15 0 8 -9 15 -19 15 -17 0 -19 5 -14 35 3 21 1 41 -7 50 -11 13 -8 16 19 21 17 4 28 10 25 15 -3 5 0 9 5 9 6 0 11 -4 11 -10z m1180 -834 c0 -3 -4 -8 -10 -11 -5 -3 -10 -1 -10 4 0 6 5 11 10 11 6 0 10 -2 10 -4z"/> <path d="M1328 2413 c7 -3 16 -2 19 1 4 3 -2 6 -13 5 -11 0 -14 -3 -6 -6z"/> <path d="M1408 2413 c7 -3 16 -2 19 1 4 3 -2 6 -13 5 -11 0 -14 -3 -6 -6z"/> <path d="M1485 2335 c0 -30 3 -55 8 -55 4 0 7 25 7 55 0 30 -3 55 -7 55 -5 0 -8 -25 -8 -55z"/> <path d="M1513 2335 c0 -33 2 -45 4 -27 2 18 2 45 0 60 -2 15 -4 0 -4 -33z"/> <path d="M1828 2383 c7 -3 16 -2 19 1 4 3 -2 6 -13 5 -11 0 -14 -3 -6 -6z"/> <path d="M1861 2338 c0 -32 2 -58 7 -58 4 0 6 19 4 43 -5 70 -10 76 -11 15z"/> <path d="M1173 2283 c9 -2 23 -2 30 0 6 3 -1 5 -18 5 -16 0 -22 -2 -12 -5z"/> <path d="M1268 2283 c6 -2 18 -2 25 0 6 3 1 5 -13 5 -14 0 -19 -2 -12 -5z"/> <path d="M1135 2205 c0 -30 3 -55 8 -55 4 0 7 25 7 55 0 30 -3 55 -7 55 -5 0 -8 -25 -8 -55z"/> <path d="M1488 2205 c-1 -30 0 -55 5 -55 4 0 7 25 7 55 0 71 -7 71 -12 0z"/> <path d="M1512 2240 c0 -14 2 -19 5 -12 2 6 2 18 0 25 -3 6 -5 1 -5 -13z"/> <path d="M1830 2249 c0 -5 5 -7 10 -4 6 3 10 8 10 11 0 2 -4 4 -10 4 -5 0 -10 -5 -10 -11z"/> <path d="M1863 2205 c0 -33 2 -45 4 -27 2 18 2 45 0 60 -2 15 -4 0 -4 -33z"/> <path d="M1512 2180 c0 -19 2 -27 5 -17 2 9 2 25 0 35 -3 9 -5 1 -5 -18z"/> <path d="M780 2160 c-13 -8 -12 -10 3 -10 9 0 17 5 17 10 0 12 -1 12 -20 0z"/> <path d="M1248 2153 c7 -3 16 -2 19 1 4 3 -2 6 -13 5 -11 0 -14 -3 -6 -6z"/> <path d="M1698 2153 c7 -3 16 -2 19 1 4 3 -2 6 -13 5 -11 0 -14 -3 -6 -6z"/> <path d="M1143 2090 c0 -25 2 -35 4 -22 2 12 2 32 0 45 -2 12 -4 2 -4 -23z"/> <path d="M1488 2081 l4 -50 -44 -4 -43 -4 48 -1 47 -2 0 55 c0 30 -3 55 -7 55 -5 0 -6 -22 -5 -49z"/> <path d="M1510 2115 c0 -8 2 -15 4 -15 2 0 6 7 10 15 3 8 1 15 -4 15 -6 0 -10 -7 -10 -15z"/> <path d="M1830 2121 c0 -6 4 -12 8 -15 5 -3 9 1 9 9 0 8 -4 15 -9 15 -4 0 -8 -4 -8 -9z"/> <path d="M1862 2078 l-2 -58 58 2 57 2 -52 3 -52 4 -4 52 -3 52 -2 -57z"/> <path d="M2175 2120 c3 -5 8 -10 11 -10 2 0 4 5 4 10 0 6 -5 10 -11 10 -5 0 -7 -4 -4 -10z"/> <path d="M2210 2105 c0 -14 2 -25 4 -25 2 0 6 11 8 25 3 14 1 25 -3 25 -5 0 -9 -11 -9 -25z"/> <path d="M1511 2058 c-1 -30 3 -38 17 -38 11 0 13 3 5 8 -6 4 -13 21 -16 37 -4 27 -4 27 -6 -7z"/> <path d="M2180 2053 c0 -5 -10 -15 -22 -21 -21 -10 -21 -11 -3 -11 14 -1 16 -4 8 -12 -6 -6 -9 -17 -6 -24 2 -8 -5 -18 -16 -25 -13 -6 -21 -21 -21 -35 0 -14 -6 -25 -12 -25 -9 0 -8 -3 2 -10 23 -14 4 -23 -44 -22 -31 2 -46 -2 -50 -13 -8 -23 -45 -18 -56 8 -6 15 -9 17 -9 5 -1 -9 -4 -23 -7 -32 -4 -12 0 -16 15 -16 19 0 21 -6 21 -50 0 -44 -3 -50 -21 -50 -18 0 -20 -5 -17 -45 3 -49 21 -63 22 -17 1 18 12 38 30 55 16 15 23 27 16 27 -7 0 -11 2 -8 5 10 10 117 14 123 5 3 -6 0 -10 -7 -11 -7 0 -1 -6 13 -12 14 -7 34 -19 44 -27 17 -14 18 -13 12 3 -4 10 -7 23 -7 28 0 5 -9 9 -20 9 -19 0 -20 7 -20 104 0 97 1 104 19 99 17 -4 20 2 23 54 2 32 3 60 1 62 -2 2 -3 0 -3 -6z m-110 -208 c0 -18 14 -19 41 -5 11 6 19 7 19 1 0 -5 -6 -11 -14 -14 -9 -4 -12 -14 -9 -26 4 -16 1 -21 -15 -21 -11 0 -23 -6 -25 -12 -4 -10 -8 -9 -16 2 -9 12 -14 13 -31 2 -12 -7 -20 -8 -20 -2 0 5 5 10 10 10 6 0 9 12 8 28 -2 21 1 27 15 26 9 -1 17 4 17 12 0 8 5 14 10 14 6 0 10 -7 10 -15z"/> <path d="M1135 2030 c-3 -5 -1 -10 4 -10 6 0 11 5 11 10 0 6 -2 10 -4 10 -3 0 -8 -4 -11 -10z"/> <path d="M848 2023 c18 -2 45 -2 60 0 15 2 0 4 -33 4 -33 0 -45 -2 -27 -4z"/> <path d="M1773 2023 c15 -2 39 -2 55 0 15 2 2 4 -28 4 -30 0 -43 -2 -27 -4z"/> <path d="M2068 2023 c7 -3 16 -2 19 1 4 3 -2 6 -13 5 -11 0 -14 -3 -6 -6z"/> <path d="M2108 2023 c7 -3 16 -2 19 1 4 3 -2 6 -13 5 -11 0 -14 -3 -6 -6z"/> <path d="M2190 1984 c0 -41 2 -45 20 -39 19 6 20 2 20 -99 0 -99 -1 -106 -20 -106 -11 0 -20 -7 -20 -15 0 -18 -4 -18 45 0 22 8 32 14 22 15 -12 0 -16 4 -10 13 4 6 6 21 5 32 -2 18 -1 18 18 -4 12 -14 18 -31 15 -45 -3 -11 -1 -27 4 -35 15 -23 41 -5 42 29 1 16 3 35 4 40 1 6 3 13 4 18 1 4 5 1 10 -7 10 -15 91 -33 91 -20 0 5 -4 9 -9 9 -9 0 -61 71 -61 83 0 4 8 7 18 8 14 0 14 2 -3 8 -27 11 -35 5 -35 -30 0 -21 -5 -29 -18 -29 -16 0 -18 -7 -14 -55 3 -37 1 -55 -7 -55 -7 0 -11 21 -11 55 0 48 -2 55 -20 55 -17 0 -20 7 -20 41 0 36 2 41 20 36 15 -4 20 0 20 14 0 10 5 19 11 19 6 0 9 -7 5 -15 -4 -12 2 -15 27 -14 18 0 25 3 17 6 -8 3 -25 14 -37 25 -21 20 -22 20 -35 -1 -17 -28 -38 -27 -38 4 0 14 -8 29 -21 35 -12 7 -18 18 -15 26 3 8 1 14 -4 14 -20 0 -9 19 13 23 19 4 18 4 -5 6 -27 1 -28 -1 -28 -45z m210 -206 c0 -5 -9 -3 -20 4 -11 7 -20 16 -20 20 0 5 9 3 20 -4 11 -7 20 -16 20 -20z"/> <path d="M1388 1993 c7 -3 16 -2 19 1 4 3 -2 6 -13 5 -11 0 -14 -3 -6 -6z"/> <path d="M1493 1960 c0 -25 2 -35 4 -22 2 12 2 32 0 45 -2 12 -4 2 -4 -23z"/> <path d="M1513 1945 c0 -33 2 -45 4 -27 2 18 2 45 0 60 -2 15 -4 0 -4 -33z"/> <path d="M1548 1993 c6 -2 18 -2 25 0 6 3 1 5 -13 5 -14 0 -19 -2 -12 -5z"/> <path d="M1861 1948 c0 -32 2 -58 7 -58 4 0 6 19 4 43 -5 70 -10 76 -11 15z"/> <path d="M1141 1954 c0 -11 3 -14 6 -6 3 7 2 16 -1 19 -3 4 -6 -2 -5 -13z"/> <path d="M1480 1900 c-13 -8 -12 -10 3 -10 9 0 17 5 17 10 0 12 -1 12 -20 0z"/> <path d="M1921 1893 c3 -19 -14 -50 -33 -62 -19 -12 -20 -11 -16 13 3 14 1 26 -3 26 -5 0 -9 -23 -9 -52 0 -37 -3 -49 -11 -41 -12 12 -15 65 -5 82 4 6 2 11 -3 11 -6 0 -11 -9 -11 -20 0 -11 -6 -20 -14 -20 -8 0 -17 -9 -21 -20 -3 -11 -16 -30 -27 -43 -17 -19 -21 -37 -21 -90 l0 -67 -59 0 c-33 0 -69 5 -81 12 -12 6 -35 11 -52 12 -29 1 -30 3 -36 56 l-7 55 1 -62 c0 -35 -3 -66 -6 -70 -4 -3 -7 24 -7 62 0 72 -7 86 -12 22 -2 -41 -2 -41 -28 -27 -25 13 -86 -20 -82 -44 2 -10 -4 -16 -18 -16 -11 0 -20 5 -20 10 0 6 6 10 13 10 7 0 8 3 2 8 -6 4 -12 21 -13 37 -6 55 -42 60 -42 6 0 -15 -5 -32 -12 -39 -9 -9 -9 -12 0 -12 7 0 12 -4 12 -10 0 -6 -32 -11 -72 -12 l-73 -2 62 -3 c62 -4 63 -4 48 -26 -8 -13 -14 -47 -14 -85 0 -35 -1 -66 -4 -68 -3 -3 -1 -21 3 -40 4 -18 5 -34 1 -34 -3 0 -4 -22 -3 -50 3 -43 1 -50 -14 -50 -16 0 -16 -1 2 -15 18 -14 18 -14 -8 -15 -24 0 -28 -4 -28 -30 0 -32 16 -39 39 -17 11 10 13 9 7 -6 -3 -10 -6 -41 -6 -68 0 -42 -3 -49 -19 -49 -12 0 -21 -8 -24 -22 l-4 -23 -2 23 c-1 15 -7 22 -21 22 -14 0 -20 7 -20 21 0 11 -5 17 -10 14 -5 -3 -10 -1 -10 4 0 6 5 11 10 11 6 0 10 14 10 30 0 23 4 30 20 30 16 0 20 7 20 30 0 19 -5 30 -14 30 -9 0 -12 -7 -9 -19 3 -10 0 -22 -6 -25 -7 -5 -11 3 -11 18 0 14 -5 26 -11 26 -5 0 -7 -5 -4 -11 4 -6 4 -25 1 -44 -6 -33 -7 -33 -60 -31 -38 1 -52 5 -49 14 3 7 1 18 -4 25 -5 6 -9 48 -9 92 1 59 -3 84 -14 95 -18 18 -92 20 -97 3 -3 -7 -20 -13 -38 -13 -26 0 -35 -5 -41 -22 -3 -13 -13 -31 -22 -41 -8 -9 -12 -20 -9 -24 4 -3 7 0 7 8 1 9 5 7 13 -6 8 -13 23 -20 41 -20 35 0 48 -24 14 -26 -17 -1 -18 -3 -5 -6 18 -5 21 -17 18 -70 -1 -17 3 -34 9 -38 6 -3 8 -11 5 -16 -4 -5 1 -9 9 -9 10 0 17 -9 17 -22 5 -92 5 -98 -11 -98 -8 0 -2 -7 14 -15 27 -14 31 -14 45 0 10 10 11 15 3 15 -7 0 -12 -4 -12 -10 0 -5 -4 -10 -10 -10 -6 0 -10 33 -10 80 0 73 -2 80 -20 80 -18 0 -19 7 -19 125 0 117 1 125 19 125 11 0 20 5 20 10 0 6 5 10 11 10 5 0 7 -4 4 -10 -3 -6 4 -10 17 -10 22 0 23 -2 21 -90 -2 -50 2 -92 7 -95 6 -3 10 -11 10 -17 0 -6 -10 -3 -21 8 -22 19 -22 19 -10 -4 31 -62 31 -59 -2 -54 -25 4 -29 2 -24 -12 4 -10 7 -40 7 -67 0 -28 5 -49 11 -49 6 0 8 8 4 20 -8 26 5 90 19 90 28 -1 56 -39 56 -76 0 -53 8 -39 11 21 3 44 1 50 -16 50 -13 0 -20 7 -20 20 0 14 6 19 19 17 10 -2 23 2 27 10 7 11 9 11 9 0 0 -9 7 -11 20 -7 17 5 20 2 20 -20 0 -22 -4 -26 -20 -22 -18 5 -20 0 -20 -49 0 -30 4 -54 9 -54 5 0 9 19 8 43 -1 36 2 42 18 42 16 0 21 -9 26 -45 l6 -45 1 39 2 39 23 -20 22 -21 33 27 c17 15 32 32 32 38 0 6 22 8 55 5 50 -4 55 -3 64 19 5 13 9 44 9 68 1 25 7 48 14 52 10 7 10 9 -2 9 -12 0 -15 15 -15 75 0 75 0 76 25 73 18 -2 26 2 28 16 3 15 0 18 -17 13 -21 -5 -21 -2 -21 119 0 119 1 124 21 124 15 0 19 5 15 15 -3 8 -1 15 4 15 6 0 10 -7 10 -15 0 -8 9 -15 20 -15 18 0 20 -7 20 -56 0 -64 23 -73 28 -11 3 37 4 37 48 37 37 0 44 -3 44 -20 0 -11 5 -20 12 -20 9 0 9 -3 0 -12 -7 -7 -12 -26 -12 -44 0 -28 -3 -31 -21 -27 -19 5 -20 2 -18 -45 2 -29 0 -55 -4 -58 -4 -4 -7 19 -7 50 0 53 -2 58 -20 53 -15 -4 -20 0 -20 15 0 11 -5 18 -12 16 -8 -3 -14 -28 -16 -67 -3 -56 -5 -61 -22 -56 -16 5 -20 2 -20 -19 0 -15 -7 -26 -17 -29 -14 -4 -13 -5 3 -6 12 0 24 6 28 14 3 8 12 15 21 15 12 0 15 14 17 68 l2 67 6 -70 c6 -67 7 -68 8 -17 2 65 20 69 24 5 3 -40 6 -48 23 -48 17 0 20 8 23 48 4 55 26 65 37 16 5 -21 17 -35 40 -46 31 -15 36 -15 59 1 14 9 26 25 26 37 0 27 28 36 44 14 15 -21 42 -28 43 -11 0 6 4 19 8 29 5 12 3 17 -8 17 -9 0 -18 -10 -20 -22 l-4 -23 -2 23 c-1 15 -7 22 -21 22 -19 0 -20 7 -20 140 0 132 1 140 19 140 15 0 21 8 24 33 l4 32 1 -32 c2 -26 6 -33 22 -33 22 0 22 9 20 -250 -1 -79 1 -142 4 -140 2 3 7 55 11 115 4 61 9 113 11 117 2 3 0 8 -5 10 -6 1 -1 14 10 28 12 15 19 18 16 8 -3 -9 1 -19 9 -22 11 -4 14 5 14 44 0 43 -3 50 -20 50 -17 0 -20 7 -20 50 0 43 3 50 20 50 15 0 20 7 20 30 0 17 7 33 18 39 15 9 15 10 -5 11 -13 0 -23 -3 -22 -7z m-591 -254 c0 -51 3 -59 19 -59 17 0 18 -13 20 -245 l1 -245 -51 0 -51 0 4 69 c2 42 0 67 -6 64 -5 -4 -7 1 -3 11 4 10 7 92 7 182 0 157 1 164 20 164 18 0 20 7 20 66 0 41 4 63 10 59 6 -3 10 -33 10 -66z m565 31 c-3 -5 -11 -10 -16 -10 -6 0 -7 5 -4 10 3 6 11 10 16 10 6 0 7 -4 4 -10z m-388 -102 c-3 -7 -5 -2 -5 12 0 14 2 19 5 13 2 -7 2 -19 0 -25z m208 12 c-3 -6 1 -7 9 -4 14 5 16 -6 16 -75 0 -74 -2 -81 -20 -81 -11 0 -20 -7 -20 -15 0 -8 -4 -15 -10 -15 -5 0 -10 7 -10 15 0 8 -9 15 -20 15 -18 0 -20 7 -20 79 0 79 0 80 28 84 49 7 53 7 47 -3z m-835 -269 c0 -17 -3 -18 -24 -8 -27 13 -25 27 5 27 12 0 19 -7 19 -19z m-24 -37 c18 -14 18 -15 -6 -8 -31 8 -50 24 -29 24 8 0 24 -7 35 -16z m394 -72 c0 -5 -7 -9 -15 -9 -8 0 -15 4 -15 9 0 4 7 8 15 8 8 0 15 -4 15 -8z"/> <path d="M1330 1415 c-7 -9 -8 -15 -2 -15 5 0 12 7 16 15 3 8 4 15 2 15 -2 0 -9 -7 -16 -15z"/> <path d="M1297 1363 c-4 -3 -7 -11 -7 -17 0 -6 4 -4 10 4 5 8 12 11 16 8 4 -4 -1 -19 -10 -32 -13 -21 -13 -24 -1 -20 8 3 17 14 20 25 9 29 -10 51 -28 32z"/> <path d="M2180 1870 c-13 -8 -13 -10 2 -10 9 0 20 5 23 10 8 13 -5 13 -25 0z"/> <path d="M1143 1815 c0 -33 2 -45 4 -27 2 18 2 45 0 60 -2 15 -4 0 -4 -33z"/> <path d="M1493 1815 c0 -33 2 -45 4 -27 2 18 2 45 0 60 -2 15 -4 0 -4 -33z"/> <path d="M1513 1815 c0 -33 2 -45 4 -27 2 18 2 45 0 60 -2 15 -4 0 -4 -33z"/> <path d="M2290 1864 c0 -2 9 -8 20 -14 11 -6 20 -7 20 -2 0 6 -9 12 -20 15 -11 3 -20 3 -20 1z"/> <path d="M2170 1846 c0 -9 30 -14 35 -6 4 6 -3 10 -14 10 -12 0 -21 -2 -21 -4z"/> <path d="M2290 1830 c8 -5 20 -10 25 -10 6 0 3 5 -5 10 -8 5 -19 10 -25 10 -5 0 -3 -5 5 -10z"/> <path d="M791 1774 c0 -11 3 -14 6 -6 3 7 2 16 -1 19 -3 4 -6 -2 -5 -13z"/> <path d="M1358 1763 c7 -3 16 -2 19 1 4 3 -2 6 -13 5 -11 0 -14 -3 -6 -6z"/> <path d="M1940 1745 c-8 -9 -8 -15 -2 -15 12 0 26 19 19 26 -2 2 -10 -2 -17 -11z"/> <path d="M740 1736 c0 -2 14 -6 30 -8 17 -3 30 -1 30 4 0 4 -13 8 -30 8 -16 0 -30 -2 -30 -4z"/> <path d="M1138 1698 c5 -71 10 -77 11 -15 0 31 -2 57 -7 57 -4 0 -6 -19 -4 -42z"/> <path d="M908 1633 c7 -3 16 -2 19 1 4 3 -2 6 -13 5 -11 0 -14 -3 -6 -6z"/> <path d="M988 1633 c7 -3 16 -2 19 1 4 3 -2 6 -13 5 -11 0 -14 -3 -6 -6z"/> <path d="M1785 1630 c-3 -5 -2 -10 4 -10 5 0 13 5 16 10 3 6 2 10 -4 10 -5 0 -13 -4 -16 -10z"/> <path d="M2078 1633 c6 -2 18 -2 25 0 6 3 1 5 -13 5 -14 0 -19 -2 -12 -5z"/> <path d="M1806 1614 c-11 -7 -18 -16 -15 -18 2 -2 13 2 23 10 11 7 18 16 15 18 -2 2 -13 -2 -23 -10z"/> <path d="M738 1603 c12 -2 32 -2 45 0 12 2 2 4 -23 4 -25 0 -35 -2 -22 -4z"/> <path d="M833 1603 c9 -2 25 -2 35 0 9 3 1 5 -18 5 -19 0 -27 -2 -17 -5z"/> <path d="M903 1603 c9 -2 25 -2 35 0 9 3 1 5 -18 5 -19 0 -27 -2 -17 -5z"/> <path d="M1008 1603 c29 -2 74 -2 100 0 26 2 2 3 -53 3 -55 0 -76 -1 -47 -3z"/> <path d="M1928 1603 c7 -3 16 -2 19 1 4 3 -2 6 -13 5 -11 0 -14 -3 -6 -6z"/> <path d="M1988 1603 c7 -3 16 -2 19 1 4 3 -2 6 -13 5 -11 0 -14 -3 -6 -6z"/> <path d="M2138 1603 c12 -2 30 -2 40 0 9 3 -1 5 -23 4 -22 0 -30 -2 -17 -4z"/> <path d="M2218 1603 c7 -3 16 -2 19 1 4 3 -2 6 -13 5 -11 0 -14 -3 -6 -6z"/> <path d="M1142 1570 c0 -14 2 -19 5 -12 2 6 2 18 0 25 -3 6 -5 1 -5 -13z"/> <path d="M2212 1560 c0 -14 2 -19 5 -12 2 6 2 18 0 25 -3 6 -5 1 -5 -13z"/> <path d="M1570 1556 c0 -20 17 -29 26 -15 4 8 3 9 -4 5 -7 -4 -12 -3 -12 3 0 5 6 12 13 14 7 3 5 6 -5 6 -10 1 -18 -5 -18 -13z"/> <path d="M1142 1520 c0 -14 2 -19 5 -12 2 6 2 18 0 25 -3 6 -5 1 -5 -13z"/> <path d="M1419 1493 c-13 -16 -12 -17 4 -4 9 8 20 11 24 7 4 -3 -2 -13 -13 -21 -10 -8 -14 -15 -8 -15 17 0 37 27 29 40 -9 15 -21 12 -36 -7z"/> <path d="M1143 1425 c0 -33 2 -45 4 -27 2 18 2 45 0 60 -2 15 -4 0 -4 -33z"/> <path d="M2078 1473 c7 -3 16 -2 19 1 4 3 -2 6 -13 5 -11 0 -14 -3 -6 -6z"/> <path d="M1141 1334 c0 -11 3 -14 6 -6 3 7 2 16 -1 19 -3 4 -6 -2 -5 -13z"/> <path d="M1488 1299 c-1 -28 0 -53 5 -56 4 -2 7 21 7 51 0 70 -7 73 -12 5z"/> <path d="M1513 1295 c0 -33 2 -45 4 -27 2 18 2 45 0 60 -2 15 -4 0 -4 -33z"/> <path d="M1861 1298 c0 -32 2 -58 7 -58 4 0 6 19 4 43 -5 70 -10 76 -11 15z"/> <path d="M920 1251 c0 -5 7 -11 15 -15 8 -3 15 -11 15 -17 0 -8 -4 -8 -15 1 -9 7 -15 8 -15 2 0 -12 26 -23 34 -15 12 12 5 33 -14 43 -11 6 -20 7 -20 1z"/> <path d="M2118 1243 c7 -3 16 -2 19 1 4 3 -2 6 -13 5 -11 0 -14 -3 -6 -6z"/> <path d="M658 1213 c6 -2 18 -2 25 0 6 3 1 5 -13 5 -14 0 -19 -2 -12 -5z"/> <path d="M723 1213 c15 -2 39 -2 55 0 15 2 2 4 -28 4 -30 0 -43 -2 -27 -4z"/> <path d="M1088 1213 c6 -2 18 -2 25 0 6 3 1 5 -13 5 -14 0 -19 -2 -12 -5z"/> <path d="M1477 1212 c6 -4 13 -30 16 -57 l3 -50 2 58 c2 48 -1 57 -15 57 -12 0 -14 -3 -6 -8z"/> <path d="M1512 1178 c1 -41 1 -41 5 -8 3 19 10 38 16 42 8 5 6 8 -5 8 -15 0 -18 -8 -16 -42z"/> <path d="M1780 1216 c0 -8 61 -12 66 -4 3 4 -11 8 -30 8 -20 0 -36 -2 -36 -4z"/> <path d="M1861 1163 c1 -62 6 -56 11 15 2 23 0 42 -4 42 -5 0 -7 -26 -7 -57z"/> <path d="M2158 1213 c6 -2 18 -2 25 0 6 3 1 5 -13 5 -14 0 -19 -2 -12 -5z"/> <path d="M1830 1120 c0 -5 5 -10 11 -10 5 0 7 5 4 10 -3 6 -8 10 -11 10 -2 0 -4 -4 -4 -10z"/> <path d="M1173 1105 c0 -8 4 -15 9 -15 4 0 8 4 8 9 0 6 -4 12 -8 15 -5 3 -9 -1 -9 -9z"/> <path d="M1493 1030 c0 -36 2 -50 4 -32 2 17 2 47 0 65 -2 17 -4 3 -4 -33z"/> <path d="M1513 1030 c0 -36 2 -50 4 -32 2 17 2 47 0 65 -2 17 -4 3 -4 -33z"/> <path d="M1860 1030 c0 -35 3 -60 7 -56 7 7 5 108 -3 115 -2 2 -4 -24 -4 -59z"/> <path d="M2273 1083 c9 -2 23 -2 30 0 6 3 -1 5 -18 5 -16 0 -22 -2 -12 -5z"/> <path d="M2211 1054 c0 -11 3 -14 6 -6 3 7 2 16 -1 19 -3 4 -6 -2 -5 -13z"/> <path d="M1832 1020 c0 -19 2 -27 5 -17 2 9 2 25 0 35 -3 9 -5 1 -5 -18z"/> <path d="M2211 1014 c0 -11 3 -14 6 -6 3 7 2 16 -1 19 -3 4 -6 -2 -5 -13z"/> <path d="M740 956 c0 -2 14 -6 30 -8 17 -3 30 -1 30 4 0 4 -13 8 -30 8 -16 0 -30 -2 -30 -4z"/> <path d="M1122 953 c13 -3 18 -18 21 -56 l3 -52 2 58 c2 53 1 57 -20 56 -17 -1 -18 -3 -6 -6z"/> <path d="M1178 953 c12 -2 32 -2 45 0 12 2 2 4 -23 4 -25 0 -35 -2 -22 -4z"/> <path d="M1263 953 c9 -2 23 -2 30 0 6 3 -1 5 -18 5 -16 0 -22 -2 -12 -5z"/> <path d="M1422 953 l67 -4 4 -52 3 -52 2 58 2 57 -72 -2 -73 -2 67 -3z"/> <path d="M1511 898 c1 -68 6 -61 11 15 2 26 0 47 -4 47 -5 0 -7 -28 -7 -62z"/> <path d="M1768 953 c18 -2 45 -2 60 0 15 2 0 4 -33 4 -33 0 -45 -2 -27 -4z"/> <path d="M1862 898 l2 -63 3 57 c3 43 8 58 21 61 12 3 11 5 -5 6 -22 1 -23 -2 -21 -61z"/> <path d="M1923 953 c9 -2 25 -2 35 0 9 3 1 5 -18 5 -19 0 -27 -2 -17 -5z"/> <path d="M1988 953 c7 -3 16 -2 19 1 4 3 -2 6 -13 5 -11 0 -14 -3 -6 -6z"/> <path d="M2150 956 c0 -2 9 -6 20 -9 11 -3 20 -1 20 4 0 5 -9 9 -20 9 -11 0 -20 -2 -20 -4z"/> <path d="M2181 904 c0 -11 3 -14 6 -6 3 7 2 16 -1 19 -3 4 -6 -2 -5 -13z"/> <path d="M2148 853 c7 -3 16 -2 19 1 4 3 -2 6 -13 5 -11 0 -14 -3 -6 -6z"/> <path d="M785 820 c3 -5 8 -10 11 -10 2 0 4 5 4 10 0 6 -5 10 -11 10 -5 0 -7 -4 -4 -10z"/> <path d="M820 820 c0 -5 7 -7 15 -4 8 4 15 8 15 10 0 2 -7 4 -15 4 -8 0 -15 -4 -15 -10z"/> <path d="M1127 822 c6 -4 13 -32 16 -62 l3 -55 2 63 c2 53 0 62 -15 62 -12 0 -14 -3 -6 -8z"/> <path d="M1168 823 c7 -3 16 -2 19 1 4 3 -2 6 -13 5 -11 0 -14 -3 -6 -6z"/> <path d="M1467 823 c19 -4 23 -12 26 -56 l3 -52 2 58 c2 56 2 57 -25 56 -23 -1 -24 -2 -6 -6z"/> <path d="M1512 768 l2 -63 3 55 c3 30 10 58 16 62 8 5 6 8 -5 8 -16 0 -18 -9 -16 -62z"/> <path d="M1813 823 c16 -3 25 -9 21 -15 -4 -7 -2 -8 4 -4 22 14 12 26 -20 25 -31 -2 -31 -2 -5 -6z"/> <path d="M1862 810 c0 -14 2 -19 5 -12 2 6 2 18 0 25 -3 6 -5 1 -5 -13z"/> <path d="M2023 823 c9 -2 25 -2 35 0 9 3 1 5 -18 5 -19 0 -27 -2 -17 -5z"/> <path d="M2158 823 c6 -2 18 -2 25 0 6 3 1 5 -13 5 -14 0 -19 -2 -12 -5z"/> <path d="M1863 745 c0 -22 2 -30 4 -17 2 12 2 30 0 40 -3 9 -5 -1 -4 -23z"/> <path d="M1830 730 c0 -5 5 -10 11 -10 5 0 7 5 4 10 -3 6 -8 10 -11 10 -2 0 -4 -4 -4 -10z"/> <path d="M1100 696 c0 -2 11 -6 25 -8 14 -3 25 -1 25 3 0 5 -11 9 -25 9 -14 0 -25 -2 -25 -4z"/> <path d="M1318 693 c7 -3 16 -2 19 1 4 3 -2 6 -13 5 -11 0 -14 -3 -6 -6z"/> <path d="M1368 693 c12 -2 30 -2 40 0 9 3 -1 5 -23 4 -22 0 -30 -2 -17 -4z"/> <path d="M1488 653 c5 -76 10 -83 11 -15 0 34 -2 62 -7 62 -4 0 -6 -21 -4 -47z"/> <path d="M1512 638 l2 -63 3 55 c3 30 10 58 16 62 8 5 6 8 -5 8 -16 0 -18 -9 -16 -62z"/> <path d="M1598 693 c7 -3 16 -2 19 1 4 3 -2 6 -13 5 -11 0 -14 -3 -6 -6z"/> <path d="M1803 693 c9 -2 25 -2 35 0 9 3 1 5 -18 5 -19 0 -27 -2 -17 -5z"/> <path d="M1861 638 c1 -68 6 -61 11 15 2 26 0 47 -4 47 -5 0 -7 -28 -7 -62z"/> <path d="M1983 693 c9 -2 23 -2 30 0 6 3 -1 5 -18 5 -16 0 -22 -2 -12 -5z"/> <path d="M2038 693 c7 -3 16 -2 19 1 4 3 -2 6 -13 5 -11 0 -14 -3 -6 -6z"/> <path d="M1135 601 c-3 -5 -1 -12 5 -16 5 -3 10 1 10 9 0 18 -6 21 -15 7z"/> <path d="M1173 563 c9 -2 25 -2 35 0 9 3 1 5 -18 5 -19 0 -27 -2 -17 -5z"/> <path d="M1788 563 c7 -3 16 -2 19 1 4 3 -2 6 -13 5 -11 0 -14 -3 -6 -6z"/> <path d="M710 1310 c0 -5 5 -10 11 -10 5 0 7 5 4 10 -3 6 -8 10 -11 10 -2 0 -4 -4 -4 -10z"/> <path d="M2670 1935 c0 -22 -3 -25 -21 -20 -20 7 -20 3 -19 -92 2 -71 -1 -97 -10 -95 -6 1 -9 -2 -6 -6 3 -5 17 -7 31 -4 24 4 25 3 25 -54 0 -42 3 -55 11 -47 6 6 10 32 8 57 -4 42 -2 46 19 46 22 0 23 2 20 98 -3 93 -4 97 -25 94 -17 -2 -20 1 -16 16 2 11 0 23 -6 26 -7 5 -11 -3 -11 -19z m30 -79 c0 -28 -39 -97 -40 -69 0 6 7 18 15 26 18 18 7 31 -13 15 -12 -10 -13 -7 -11 17 2 17 7 35 12 42 15 21 37 2 37 -31z m2 -91 c-3 -16 -11 -25 -23 -25 -23 0 -24 8 -2 32 22 25 31 23 25 -7z"/> <path d="M433 1522 c-30 -4 -33 -48 -4 -48 11 0 17 4 14 9 -2 4 1 15 8 23 14 18 11 21 -18 16z"/> <path d="M320 1466 c0 -29 -3 -33 -20 -29 -18 5 -20 0 -20 -51 l0 -56 50 0 50 0 0 55 c0 42 -4 55 -15 55 -8 0 -12 -6 -9 -13 2 -7 -4 -22 -16 -32 -11 -10 -20 -13 -20 -8 0 6 6 15 13 21 8 7 11 26 9 51 -5 50 -22 55 -22 7z m23 -103 c-7 -2 -19 -2 -25 0 -7 3 -2 5 12 5 14 0 19 -2 13 -5z"/> <path d="M413 1455 c-8 -21 1 -28 27 -20 17 5 19 10 9 21 -15 18 -28 18 -36 -1z"/> <path d="M451 1404 c0 -11 3 -14 6 -6 3 7 2 16 -1 19 -3 4 -6 -2 -5 -13z"/> </g> </svg> 