 <svg  version="1.0" xmlns="http://www.w3.org/2000/svg"  width="300.000000pt" height="141.000000pt" viewBox="0 0 300.000000 141.000000"  preserveAspectRatio="xMidYMid meet">  <g transform="translate(0.000000,141.000000) scale(0.100000,-0.100000)" fill="#ffffff" stroke="none"> <path d="M34 1336 c-8 -22 0 -91 11 -91 5 0 11 9 14 20 2 11 8 24 15 28 8 6 8 10 -1 14 -22 8 -14 23 12 23 23 0 25 -4 25 -46 0 -32 4 -44 13 -41 7 2 11 17 9 39 -2 20 1 39 7 43 25 15 7 25 -44 25 -38 0 -57 -4 -61 -14z"/> <path d="M164 1335 c-4 -10 3 -26 17 -42 l24 -26 -22 6 c-30 7 -39 -9 -13 -23 16 -9 25 -8 36 1 19 16 18 29 -8 57 -13 13 -18 22 -13 20 6 -2 11 2 13 7 5 17 -28 17 -34 0z"/> <path d="M230 1301 c0 -45 2 -49 27 -54 16 -3 31 -3 36 0 12 8 -3 23 -24 23 -10 0 -19 5 -19 10 0 6 7 10 15 10 8 0 15 5 15 10 0 6 -7 10 -15 10 -8 0 -15 5 -15 10 0 6 12 10 26 10 14 0 23 4 19 10 -3 6 -19 10 -36 10 -28 0 -29 -1 -29 -49z"/> <path d="M359 1348 c0 -2 -2 -27 -3 -56 -3 -49 -2 -52 18 -46 26 8 23 0 18 57 -3 32 -9 47 -18 47 -8 0 -14 -1 -15 -2z"/> <path d="M422 1338 c-17 -17 -15 -64 4 -82 18 -19 20 -19 45 -6 37 20 20 100 -21 100 -9 0 -21 -5 -28 -12z m46 -41 c2 -19 -1 -27 -13 -27 -19 0 -30 24 -21 46 9 23 31 11 34 -19z"/> <path d="M516 1334 c-41 -41 12 -117 55 -78 21 19 24 45 9 75 -13 23 -43 25 -64 3z m54 -41 c0 -19 -30 -29 -40 -12 -5 7 -4 21 1 32 8 14 13 16 25 6 8 -6 14 -18 14 -26z"/> <path d="M647 1343 c-4 -3 -7 -26 -7 -49 0 -46 18 -69 27 -35 3 12 11 21 19 21 20 0 34 31 23 52 -9 18 -49 25 -62 11z"/> <path d="M730 1295 c0 -30 5 -55 10 -55 6 0 10 9 10 20 0 11 4 20 9 20 5 0 13 -9 16 -20 11 -34 22 -22 22 23 1 50 -11 67 -43 67 -22 0 -24 -4 -24 -55z"/> <path d="M810 1340 c0 -5 5 -10 10 -10 14 0 12 -54 -2 -68 -7 -7 -10 -12 -7 -13 44 -8 45 -7 44 48 0 48 -2 53 -22 53 -13 0 -23 -4 -23 -10z"/> <path d="M884 1325 c-28 -42 9 -95 57 -80 29 9 17 31 -14 27 -23 -3 -27 0 -27 22 0 26 7 30 43 27 21 -3 23 15 1 23 -28 11 -43 6 -60 -19z"/> <path d="M980 1298 c0 -52 1 -53 30 -54 19 -1 30 4 30 12 0 8 -9 14 -20 14 -11 0 -20 5 -20 10 0 6 7 10 15 10 8 0 15 5 15 10 0 6 -7 10 -15 10 -8 0 -15 5 -15 10 0 6 9 10 20 10 11 0 20 5 20 10 0 6 -13 10 -30 10 -30 0 -30 -1 -30 -52z"/> <path d="M1095 1340 c-3 -5 -1 -10 4 -10 15 0 14 -53 -1 -68 -7 -7 -10 -12 -7 -13 44 -8 45 -7 44 48 0 43 -3 53 -17 53 -9 0 -20 -4 -23 -10z"/> <path d="M1160 1301 c0 -59 17 -78 22 -24 l3 38 18 -37 c10 -21 20 -38 22 -38 3 0 5 25 5 55 0 30 -4 55 -10 55 -5 0 -10 -10 -10 -22 l0 -22 -16 22 c-24 34 -34 26 -34 -27z"/> <path d="M1250 1300 l0 -50 35 0 c28 0 38 5 47 25 16 35 -12 75 -52 75 -29 0 -30 -1 -30 -50z m60 -6 c0 -17 -6 -24 -18 -24 -15 0 -18 6 -14 29 5 36 32 31 32 -5z"/> <path d="M1350 1301 c0 -47 1 -49 30 -53 20 -3 30 0 30 9 0 7 -9 13 -20 13 -11 0 -20 5 -20 10 0 6 7 10 15 10 8 0 15 5 15 10 0 6 -7 10 -15 10 -8 0 -15 5 -15 10 0 6 9 10 20 10 11 0 20 5 20 10 0 6 -13 10 -30 10 -29 0 -30 -1 -30 -49z"/> <path d="M1435 1333 c9 -21 9 -39 0 -73 l-7 -25 21 24 c16 17 21 19 21 8 0 -17 18 -32 27 -23 3 3 0 19 -7 36 -10 23 -10 34 -1 43 15 15 14 27 -4 27 -8 0 -15 -8 -15 -17 -1 -17 -1 -17 -11 0 -5 9 -15 17 -21 17 -6 0 -7 -7 -3 -17z"/> <path d="M1561 1341 c-10 -6 -10 -10 -1 -16 8 -5 10 -21 6 -45 -5 -33 -4 -36 16 -35 22 2 39 25 19 25 -6 0 -11 18 -11 40 0 41 -5 46 -29 31z"/> <path d="M1621 1332 c-12 -22 4 -52 27 -52 13 0 14 -2 3 -9 -7 -5 -11 -15 -9 -22 7 -20 48 26 48 54 0 44 -50 65 -69 29z"/> <path d="M1714 1335 c-3 -8 -3 -18 0 -24 4 -5 2 -12 -4 -16 -29 -18 11 -62 45 -49 17 7 19 69 2 92 -13 16 -36 15 -43 -3z"/> <path d="M1792 1323 c2 -20 9 -28 22 -28 11 0 21 -6 24 -14 3 -10 -2 -12 -22 -7 -19 5 -26 3 -26 -8 0 -19 28 -28 51 -16 26 14 24 44 -3 63 -19 13 -20 16 -5 16 31 1 18 21 -14 21 -27 0 -30 -3 -27 -27z"/> <path d="M2012 1338 c-14 -14 -16 -38 -2 -38 5 0 13 7 18 16 6 11 11 13 16 5 4 -6 -5 -22 -19 -37 -31 -31 -26 -42 15 -36 30 4 40 17 19 24 -9 3 -8 10 2 25 22 36 -19 71 -49 41z"/> <path d="M2089 1326 c-23 -50 10 -98 51 -76 27 15 34 47 16 75 -21 32 -53 32 -67 1z m51 -32 c0 -15 -6 -24 -15 -24 -21 0 -30 27 -15 45 16 19 30 10 30 -21z"/> <path d="M2189 1348 c0 -1 -2 -26 -3 -54 -3 -51 0 -54 43 -45 2 1 -2 8 -9 15 -6 8 -10 29 -8 47 2 20 -2 34 -9 36 -7 3 -13 3 -14 1z"/> <path d="M2256 1334 c-37 -36 -9 -107 33 -84 24 12 27 42 7 60 -8 6 -12 18 -9 26 7 19 -12 18 -31 -2z"/> <path d="M2690 1055 c0 -78 4 -115 11 -115 7 0 10 12 7 30 -3 17 0 30 6 30 7 0 7 3 1 8 -11 7 -14 112 -4 112 3 0 4 11 1 25 -2 14 -8 25 -13 25 -5 0 -9 -52 -9 -115z"/> <path d="M2740 1126 c0 -21 5 -24 35 -24 20 0 35 5 35 12 0 8 2 8 8 0 4 -6 22 -11 40 -12 27 -1 32 3 32 23 0 20 -5 24 -32 23 -18 -1 -36 -6 -40 -12 -5 -8 -8 -7 -8 2 0 19 -28 14 -33 -5 -4 -17 -5 -17 -6 0 -2 27 -31 21 -31 -7z"/> <path d="M2780 1006 c0 -27 15 -42 25 -26 5 8 11 8 20 0 10 -8 15 -8 20 0 5 8 11 8 19 1 16 -14 26 -4 26 26 0 24 -25 32 -33 11 -4 -10 -6 -10 -6 0 -1 6 -7 12 -15 12 -8 0 -17 -6 -19 -12 -4 -10 -6 -10 -6 0 -2 24 -31 12 -31 -12z"/> <path d="M2610 1000 c-8 -15 -15 -18 -33 -11 -15 6 -34 4 -57 -5 -27 -12 -35 -12 -42 -2 -5 9 -8 8 -8 -5 0 -10 -7 -25 -15 -33 -8 -9 -15 -26 -15 -40 0 -14 -6 -24 -14 -24 -8 0 -17 -8 -21 -17 -6 -16 -8 -15 -16 5 -9 24 -29 22 -29 -4 0 -8 -4 -14 -9 -14 -5 0 -12 -8 -14 -17 -3 -10 -5 0 -6 23 -1 38 -3 41 -28 40 -24 -1 -30 -8 -43 -43 -17 -51 -27 -54 -32 -10 l-4 32 -11 -27 c-7 -14 -16 -29 -22 -32 -6 -4 -15 -26 -21 -49 -6 -23 -15 -51 -20 -62 -5 -11 -11 -27 -13 -35 -3 -8 -6 0 -6 18 -1 17 -5 32 -10 32 -4 0 -11 26 -14 57 -3 32 -11 59 -17 61 -5 2 -10 24 -10 48 0 24 -4 44 -10 44 -5 0 -10 -8 -10 -17 -1 -13 -26 42 -30 63 0 0 -10 0 -22 -1 -12 -1 -24 -8 -26 -16 -3 -8 -13 -21 -22 -29 -9 -8 -23 -26 -30 -40 l-14 -25 -6 25 c-6 24 -7 24 -25 -15 -11 -22 -27 -49 -37 -59 -10 -11 -18 -26 -18 -33 0 -7 -6 -13 -12 -13 -7 0 -22 -13 -32 -29 -12 -17 -28 -28 -41 -28 -26 0 -61 -27 -86 -68 -18 -28 -19 -28 -19 -7 0 12 -6 25 -14 28 -8 3 -12 12 -9 20 3 8 0 14 -6 14 -6 0 -11 17 -11 38 0 20 -5 44 -10 52 -9 14 -13 16 -45 19 -8 0 -17 16 -21 37 -4 19 -13 38 -20 41 -8 3 -14 14 -14 24 0 10 -4 19 -9 19 -5 0 -15 15 -21 33 l-12 32 -8 -25 c-6 -21 -8 -23 -15 -8 -4 10 -12 15 -18 11 -6 -4 -8 2 -4 16 4 18 3 20 -9 10 -16 -13 -19 -69 -4 -69 6 0 10 -11 10 -25 0 -31 25 -33 35 -2 5 17 8 18 12 7 3 -8 12 -19 19 -23 8 -5 14 -25 14 -47 0 -45 19 -66 21 -23 l1 28 8 -30 c4 -16 8 -51 9 -77 1 -58 21 -76 21 -20 0 30 4 41 19 45 16 4 20 -3 25 -41 3 -24 6 -58 6 -74 0 -34 29 -73 31 -41 1 20 4 12 13 -29 9 -38 26 -35 26 5 0 40 53 96 87 91 16 -3 27 6 42 32 12 19 25 32 31 29 5 -3 12 6 16 20 4 17 11 24 20 21 9 -3 14 1 14 12 1 9 7 28 14 41 l13 23 7 -23 c5 -18 9 -20 13 -9 12 30 45 70 54 65 5 -4 9 5 9 19 0 14 5 28 10 31 6 4 10 -10 10 -34 0 -44 16 -56 23 -18 4 27 12 11 23 -48 7 -40 7 -40 14 -10 5 27 7 24 18 -30 7 -33 14 -85 17 -115 2 -30 4 -58 4 -62 2 -15 20 -8 25 10 3 9 4 2 2 -16 -4 -51 12 -48 19 3 4 25 11 42 16 39 5 -3 9 4 9 16 0 42 22 112 31 98 7 -10 9 -9 9 4 0 9 5 20 11 23 6 4 10 1 8 -6 -4 -30 1 -59 10 -59 6 0 13 20 17 45 3 25 10 45 15 45 5 0 9 10 10 23 0 21 1 21 9 2 8 -19 9 -19 9 -1 2 34 15 7 21 -41 7 -62 26 -66 41 -9 12 49 29 53 29 8 1 -27 1 -26 15 6 8 18 19 31 24 27 6 -3 13 10 17 30 6 36 24 58 24 31 0 -9 5 -16 10 -16 6 0 10 12 10 26 0 14 3 23 8 21 14 -9 52 12 52 29 0 13 3 14 15 4 8 -7 15 -23 15 -36 0 -15 6 -24 15 -24 10 0 15 10 15 29 0 17 5 33 10 36 13 8 30 -37 30 -77 0 -17 3 -28 7 -25 3 4 12 2 20 -4 10 -9 13 -80 13 -355 l0 -344 -1307 -2 c-720 -1 -1286 -3 -1258 -5 27 -3 53 -10 57 -16 6 -9 8 -9 8 1 0 9 46 12 194 12 146 0 196 -3 199 -12 4 -10 6 -10 6 0 1 17 381 18 399 0 9 -9 12 -9 12 0 0 18 386 17 393 0 4 -10 6 -10 6 0 1 18 387 18 394 0 4 -10 6 -10 6 0 1 18 387 18 394 0 4 -10 6 -10 6 0 1 18 397 18 404 0 4 -10 6 -10 6 0 1 8 19 12 54 12 l52 0 -2 332 c-1 266 -5 345 -17 393 -9 33 -21 62 -26 63 -6 2 -10 9 -10 16 0 17 -24 66 -32 66 -4 0 -12 -9 -18 -20z"/> <path d="M1314 900 c-19 -62 -34 -70 -34 -17 0 21 -3 28 -9 19 -4 -8 -12 -12 -17 -10 -5 1 -14 -22 -20 -52 -6 -30 -13 -48 -16 -40 -5 12 -7 11 -13 -5 -39 -103 -81 -167 -112 -171 -17 -3 -63 -40 -80 -64 -15 -22 -43 -27 -43 -9 0 8 -5 8 -15 -1 -12 -10 -16 -8 -25 15 -10 25 -30 27 -30 2 -1 -17 -38 -59 -48 -53 -11 6 -25 -4 -45 -34 -13 -19 -17 -21 -17 -7 0 20 -11 22 -28 5 -9 -9 -15 -9 -23 -1 -14 14 -69 -12 -69 -33 0 -8 -7 -14 -15 -14 -8 0 -15 5 -15 11 0 5 -8 9 -17 7 -10 -1 -24 1 -30 5 -7 5 -13 4 -13 -2 0 -6 -6 -8 -13 -5 -7 2 -26 -9 -43 -25 -17 -17 -45 -32 -67 -35 -36 -6 -37 -5 -37 24 0 18 -7 33 -19 39 -16 9 -21 3 -42 -39 -20 -41 -28 -48 -50 -46 -17 2 -34 -5 -49 -21 -13 -13 -29 -22 -35 -19 -7 2 -25 -2 -41 -11 -16 -8 -40 -16 -53 -17 -13 0 -26 -6 -28 -12 -5 -16 48 -14 72 2 11 8 32 14 47 14 16 0 37 9 49 21 11 11 27 18 35 15 17 -6 74 50 74 72 0 7 5 10 10 7 6 -3 10 -22 10 -41 0 -37 13 -43 43 -20 10 8 27 12 37 9 13 -4 28 5 46 26 20 24 29 29 39 21 10 -8 14 -7 17 2 4 10 8 10 21 -1 15 -12 17 -11 18 5 0 16 2 16 9 -3 14 -34 41 -27 54 15 4 12 11 20 16 17 5 -3 12 0 15 5 5 7 12 5 21 -7 7 -10 14 -13 14 -8 0 12 40 15 40 3 0 -19 20 -6 26 17 4 16 16 28 32 32 28 7 62 37 62 56 1 6 8 -1 16 -16 10 -19 21 -27 31 -23 8 3 22 6 31 6 9 0 26 13 36 29 20 29 68 64 83 59 12 -4 53 34 53 49 0 7 4 13 8 13 4 0 14 16 20 35 8 21 18 32 26 29 9 -4 17 13 27 56 7 33 18 59 24 57 5 -2 11 -28 13 -58 4 -61 22 -94 22 -38 0 39 37 159 50 159 4 0 11 -10 15 -22 l8 -23 4 23 c5 27 -17 82 -33 82 -7 0 -20 -27 -30 -60z"/> <path d="M2740 886 c0 -27 15 -42 25 -26 5 8 11 8 20 0 10 -8 15 -8 20 0 5 8 10 8 20 0 10 -8 15 -8 20 0 5 8 11 8 19 1 16 -14 26 -4 26 26 0 24 -25 32 -33 11 -4 -10 -6 -10 -6 0 -1 6 -7 12 -15 12 -8 0 -17 -6 -19 -12 -4 -10 -6 -10 -6 0 -1 17 -31 15 -31 -3 0 -9 -6 -12 -16 -8 -13 5 -13 7 -2 14 10 7 9 9 -4 9 -12 0 -18 -8 -18 -24z"/> <path d="M2740 775 c0 -8 5 -15 10 -15 6 0 10 -5 10 -11 0 -5 -5 -7 -12 -3 -7 4 -8 3 -4 -5 6 -9 11 -9 21 -1 10 8 15 8 20 0 5 -8 10 -8 20 0 10 8 15 8 20 0 5 -8 10 -8 20 0 10 8 14 8 17 -1 7 -20 28 0 28 27 0 25 -24 34 -33 12 -4 -10 -6 -10 -6 0 -1 6 -7 12 -15 12 -8 0 -17 -6 -19 -12 -4 -10 -6 -10 -6 0 -1 17 -31 15 -31 -3 0 -9 -6 -12 -16 -8 -13 5 -13 7 -2 14 10 7 9 9 -4 9 -10 0 -18 -7 -18 -15z"/> <path d="M2910 720 c0 -5 8 -10 18 -11 14 0 14 -2 2 -7 -20 -9 -24 -40 -8 -60 10 -12 10 -14 1 -8 -7 4 -13 2 -13 -3 0 -6 6 -11 13 -11 7 0 8 -3 2 -8 -17 -12 -14 -28 6 -28 16 0 18 6 15 33 -2 18 1 33 6 33 5 0 5 7 -1 17 -5 10 -5 26 0 40 7 20 5 23 -16 23 -14 0 -25 -4 -25 -10z"/> <path d="M2754 654 c3 -8 2 -12 -3 -9 -5 3 -12 1 -16 -5 -3 -5 0 -10 9 -10 8 0 17 -6 19 -12 3 -7 6 2 6 20 1 17 -4 32 -10 32 -6 0 -8 -7 -5 -16z"/> <path d="M2780 646 c0 -27 15 -42 25 -26 5 8 11 8 20 0 10 -8 15 -8 20 1 6 8 9 8 15 -1 11 -18 30 -2 30 26 0 25 -24 34 -33 12 -4 -10 -6 -10 -6 0 -1 6 -7 12 -15 12 -8 0 -17 -6 -19 -12 -4 -10 -6 -10 -6 0 -2 24 -31 12 -31 -12z"/> <path d="M2740 541 c0 -6 5 -13 10 -16 6 -3 10 -11 10 -16 0 -6 -4 -7 -10 -4 -5 3 -10 1 -10 -4 0 -6 7 -11 15 -11 10 0 15 10 15 30 0 20 -5 30 -15 30 -8 0 -15 -4 -15 -9z"/> <path d="M2780 520 c0 -20 5 -30 15 -30 8 0 15 6 15 13 0 8 3 8 9 -2 8 -12 12 -12 24 -2 12 9 16 9 19 0 6 -18 28 -1 28 21 0 22 -22 39 -28 21 -3 -9 -7 -9 -19 0 -11 10 -16 10 -23 0 -5 -9 -10 -10 -14 -2 -13 21 -26 11 -26 -19z"/> <path d="M2745 420 c-3 -5 -1 -10 6 -10 10 0 10 -3 1 -12 -16 -16 -15 -28 1 -28 7 0 14 11 15 25 2 26 -12 42 -23 25z"/> <path d="M2787 423 c-4 -3 -7 -17 -7 -30 0 -24 25 -32 33 -10 4 10 6 10 6 0 1 -7 7 -13 15 -13 8 0 17 6 19 13 4 10 6 10 6 0 2 -25 31 -13 31 11 0 27 -15 42 -25 26 -5 -8 -11 -8 -20 0 -10 8 -15 8 -20 0 -5 -8 -11 -8 -19 -1 -7 6 -16 8 -19 4z"/> <path d="M2787 303 c-4 -3 -7 -17 -7 -30 0 -24 25 -32 33 -10 4 10 6 10 6 0 1 -7 7 -13 15 -13 8 0 17 6 19 13 4 10 6 10 6 0 2 -25 31 -13 31 11 0 27 -15 42 -25 26 -5 -8 -11 -8 -20 0 -10 8 -15 8 -20 0 -5 -8 -11 -8 -19 -1 -7 6 -16 8 -19 4z"/> <path d="M2748 294 c-8 -8 3 -44 13 -44 5 0 9 11 9 25 0 24 -10 32 -22 19z"/> <path d="M2854 165 c-7 -18 3 -35 22 -35 8 0 14 10 14 25 0 27 -27 35 -36 10z"/> <path d="M553 104 c-4 -11 -1 -20 6 -22 11 -4 11 -6 0 -13 -11 -7 -10 -9 4 -9 9 0 17 7 17 15 0 9 6 12 16 8 13 -5 13 -7 2 -14 -10 -7 -9 -9 4 -9 9 0 19 6 21 13 4 10 6 10 6 0 2 -25 31 -13 31 11 0 25 -15 43 -24 28 -6 -9 -47 -8 -64 2 -7 4 -15 0 -19 -10z"/> <path d="M1326 113 c-11 -11 -6 -24 7 -17 10 6 10 4 0 -7 -17 -17 -16 -29 0 -29 7 0 14 11 15 25 2 24 -10 40 -22 28z"/> <path d="M1367 113 c-13 -13 -7 -53 8 -53 8 0 15 6 15 13 0 8 3 9 8 1 4 -6 22 -11 40 -12 27 -1 32 3 32 23 0 26 -15 41 -25 25 -5 -8 -11 -8 -20 0 -10 8 -15 8 -20 0 -5 -8 -11 -8 -19 -1 -7 6 -16 8 -19 4z"/> <path d="M1726 112 c-10 -9 -6 -23 4 -17 6 3 10 1 10 -5 0 -6 5 -8 10 -5 6 3 10 1 10 -5 0 -7 -8 -9 -20 -5 -11 4 -20 2 -20 -4 0 -7 22 -10 55 -10 33 1 55 6 55 13 0 6 4 5 9 -3 13 -21 41 -6 34 18 -6 22 -33 29 -33 9 0 -6 -6 -4 -13 7 -9 11 -16 14 -20 8 -4 -7 -20 -8 -41 -3 -19 4 -37 5 -40 2z"/> <path d="M2133 113 c-19 -7 -16 -21 3 -19 9 0 19 -5 21 -11 3 -7 0 -13 -7 -13 -6 0 -8 5 -4 13 5 8 2 8 -9 -2 -24 -19 -22 -20 23 -19 36 0 40 3 40 25 0 18 -5 23 -17 21 -10 -1 -22 0 -28 3 -5 4 -16 4 -22 2z"/> <path d="M2537 114 c-12 -12 -8 -26 6 -18 6 4 3 -2 -7 -14 -19 -22 -19 -22 3 -22 12 0 19 4 16 10 -3 5 -1 10 4 10 6 0 11 -4 11 -10 0 -5 7 -10 15 -10 9 0 15 9 15 24 0 30 -18 44 -26 21 -6 -14 -7 -14 -18 0 -6 9 -15 13 -19 9z"/> <path d="M145 100 c-3 -6 1 -13 10 -16 10 -4 13 -9 6 -13 -6 -4 14 -7 44 -8 51 -1 54 1 53 22 -2 19 -8 23 -35 23 -33 0 -46 -21 -20 -31 9 -4 9 -6 -1 -6 -8 -1 -16 8 -19 19 -6 21 -28 27 -38 10z"/> <path d="M518 104 c-8 -8 3 -44 13 -44 5 0 9 11 9 25 0 24 -10 32 -22 19z"/> <path d="M955 100 c-3 -6 1 -13 10 -16 13 -6 14 -8 3 -15 -9 -6 -9 -9 -1 -9 7 0 17 9 23 20 6 11 16 20 23 20 7 0 6 -4 -3 -10 -13 -9 -13 -10 0 -10 12 0 12 -2 2 -9 -8 -5 0 -8 22 -9 32 -1 36 1 34 22 -2 21 -7 24 -55 25 -28 0 -55 -4 -58 -9z"/> <path d="M2240 85 c0 -20 4 -26 18 -23 9 2 17 12 17 23 0 11 -8 21 -17 23 -14 3 -18 -3 -18 -23z"/> <path d="M2647 91 c-5 -22 0 -31 20 -31 8 0 12 10 11 25 -3 30 -23 33 -31 6z"/> </g> </svg> 